<ttFont>
          <CharString index="0">
            -107 callgsubr
            endchar
          </CharString>
          <CharString index="1">
            rmoveto
            -79 callgsubr
            70 44 23 25 39 vhcurveto
            -36 callsubr
            -97 -78 73 128 -3 hvcurveto
            343 hlineto
            2 12 1 13 13 vvcurveto
            -344 3 rmoveto
            120 11 75 57 73 hhcurveto
            84 53 -60 -117 hvcurveto
            -296 hlineto
            return
          </CharString>
          <CharString index="2">
            -106 callgsubr
            endchar
          </CharString>
          <CharString index="3">
            -106 callsubr
            endchar
          </CharString>
          <CharString index="4">
            rmoveto
            -105 callsubr
          </CharString>
          <CharString index="5">
            20 445 110 rmoveto
            -52 -39 -38 -26 -55 hhcurveto
            -93 -60 81 131 -16 hvcurveto
            232 36 -236 hlineto
            -1 13 0 14 14 vvcurveto
            12 0 11 1 11 vhcurveto
            276 36 -273 hlineto
            134 16 63 82 102 hhcurveto
            46 36 -26 -39 29 hvcurveto
            33 31 rlineto
            42 -31 -52 36 -60 hhcurveto
            -129 -88 -98 -162 -20 hvcurveto
            -65 -4 rlineto
            -32 62 vlineto
            -1 -11 0 -12 -12 vvcurveto
            -14 0 -13 1 -13 vhcurveto
            -62 -4 rlineto
            -32 66 vlineto
            -159 20 84 -97 117 hhcurveto
            74 51 35 59 42 hvcurveto
            -32 28 rlineto
            endchar
          </CharString>
          <CharString index="6">
            23 18 18 -94 callgsubr
            -18 23 hvcurveto
            return
          </CharString>
          <CharString index="7">
            -54 hlineto
            1 -137 2 -247 -124 -112 -211 -14 rlinecurve
            -20 168 128 62 53 72 4 149 rlinecurve
            1 57 rlineto
            -53 hlineto
            -1 -58 -4 -131 -37 -52 -97 -53 rlinecurve
            -36 296 rlineto
            -53 hlineto
            69 -560 286 6 149 133 -2 285 rlinecurve
            return
          </CharString>
          <CharString index="8">
            rmoveto
            -101 callgsubr
          </CharString>
          <CharString index="9">
            rmoveto
            -100 callgsubr
          </CharString>
          <CharString index="10">
            26 callsubr
            119 26 77 23 70 22 79 rlinecurve
            4 hlineto
            23 -79 23 -70 26 -77 40 -119 rcurveline
            -227 hlineto
            return
          </CharString>
          <CharString index="11">
            723 rmoveto
            -91 callsubr
            197 hmoveto
            -91 callsubr
            return
          </CharString>
          <CharString index="12">
            -231 658 rlineto
            -55 hlineto
            -230 -658 rlineto
            54 hlineto
            75 221 rlineto
            256 hlineto
            74 -221 rlineto
            return
          </CharString>
          <CharString index="13">
            rmoveto
            66 50 37 55 46 hvcurveto
            3 hlineto
            5 -80 rlineto
            43 481 -51 -352 hlineto
            -66 -55 -40 -29 -56 hhcurveto
            -74 -32 46 100 hvcurveto
            301 -51 -308 vlineto
            -124 46 -61 100 vhcurveto
            endchar
          </CharString>
          <CharString index="14">
            20 244 -12 rmoveto
            118 78 74 94 85 -56 44 -55 34 hvcurveto
            4 vlineto
            37 29 53 62 70 vvcurveto
            96 -65 71 -109 -95 -75 -65 -93 -68 44 -47 47 -31 vhcurveto
            -4 vlineto
            -60 -32 -66 -61 -86 vvcurveto
            -101 86 -75 118 vhcurveto
            46 349 rmoveto
            -82 33 -83 35 88 vvcurveto
            68 50 49 69 81 46 -59 -69 -54 -29 -48 -52 -43 vhcurveto
            -45 -307 rmoveto
            -90 -65 60 77 67 46 53 63 37 hvcurveto
            98 -39 93 -33 -95 vvcurveto
            -72 -57 -55 -88 vhcurveto
            endchar
          </CharString>
          <CharString index="15">
            rmoveto
            -1 136 rlineto
            -100 callsubr
            return
          </CharString>
          <CharString index="16">
            22 17 15 24 23 -17 16 -22 -22 -17 -16 -23 -24 17 -15 22 hvcurveto
            return
          </CharString>
          <CharString index="17">
            -17 -12 -14 -16 -16 -35 callgsubr
            16 -16 callgsubr
            return
          </CharString>
          <CharString index="18">
            21 3 3 0 1 2 hvcurveto
            -56 -24 -33 -45 -34 vhcurveto
            19 -27 rlineto
            57 37 33 50 73 vvcurveto
            46 -19 25 -29 vhcurveto
            return
          </CharString>
          <CharString index="19">
            20 262 386 rmoveto
            -58 -57 -33 -53 -44 hvcurveto
            228 2 84 79 100 hhcurveto
            41 39 -19 -34 27 hvcurveto
            31 34 rlineto
            37 -34 -43 26 -61 hhcurveto
            -125 -112 -95 -265 -196 84 -107 127 96 81 83 118 129 -67 68 -111 hvcurveto
            2 -355 rmoveto
            -100 -51 85 134 -9 hvcurveto
            69 50 57 26 44 hhcurveto
            94 41 -66 -90 -90 -55 -68 -71 hvcurveto
            endchar
          </CharString>
          <CharString index="20">
            579 rmoveto
            65 21 63 64 4 hvcurveto
            -38 3 rlineto
            -50 -2 -15 -40 -34 -54 -23 93 -74 hhcurveto
            -66 -21 -62 -65 -4 hvcurveto
            38 -3 rlineto
            51 3 15 39 34 54 22 -93 75 hhcurveto
            return
          </CharString>
          <CharString index="21">
            79 503 hmoveto
            -142 209 110 341 rlineto
            -53 hlineto
            -67 -213 -22 -80 -101 150 -92 143 rlineto
            -57 hlineto
            92 -143 -26 -63 -109 -344 rlineto
            53 hlineto
            113 358 241 -358 rlineto
            60 hlineto
            return
          </CharString>
          <CharString index="22">
            84 250 -12 rmoveto
            63 53 34 39 39 hvcurveto
            2 hlineto
            5 -61 rlineto
            43 718 -51 -196 hlineto
            3 -87 rlineto
            37 -47 -39 21 -58 hhcurveto
            -113 -72 callsubr
            return
          </CharString>
          <CharString index="23">
            rmoveto
            22 31 8 10 28 hvcurveto
            -13 41 rlineto
            -8 -17 -24 -7 -18 hhcurveto
            -64 -16 40 61 hvcurveto
            304 138 44 -138 139 -44 vlineto
            -6 -139 -76 -4 rlineto
            -40 74 -301 vlineto
            -88 29 -60 94 vhcurveto
            return
          </CharString>
          <CharString index="24">
            573 rmoveto
            50 hlineto
            116 143 -25 23 -114 -123 27 callsubr
            -115 123 -25 -23 117 -143 rlineto
            return
          </CharString>
          <CharString index="25">
            17 -23 -22 -17 -17 -22 -22 17 -17 22 hvcurveto
            return
          </CharString>
          <CharString index="26">
            20 228 -12 rmoveto
            104 102 77 137 139 -87 62 -109 -45 -34 -13 -19 -32 hvcurveto
            20 223 rlineto
            254 45 -300 hlineto
            -23 -300 34 -21 rlineto
            26 38 31 16 47 hhcurveto
            93 60 -61 -99 -101 -72 -66 -83 -86 -49 37 40 -38 hvcurveto
            -28 -35 rlineto
            -42 42 59 -45 102 hhcurveto
            endchar
          </CharString>
          <CharString index="27">
            rmoveto
            -90 callsubr
            return
          </CharString>
          <CharString index="28">
            rmoveto
            -89 callgsubr
            return
          </CharString>
          <CharString index="29">
            280 371 -11 rmoveto
            173 147 131 203 201 -147 129 -173 -173 -147 -129 -201 -203 147 -131 173 hvcurveto
            32 vmoveto
            -153 -130 121 181 178 130 119 153 153 130 -119 -178 -181 -130 -121 -153 hvcurveto
            5 104 rmoveto
            63 37 26 32 37 hvcurveto
            -22 30 rlineto
            -27 -31 -35 -21 -47 hhcurveto
            -79 -52 60 97 88 55 59 79 39 27 -15 -29 30 hvcurveto
            24 30 rlineto
            32 -32 -34 23 -54 hhcurveto
            -95 -86 -71 -117 -125 80 -72 96 hvcurveto
            endchar
          </CharString>
          <CharString index="30">
            209 -113 131 -160 -39 callgsubr
            return
          </CharString>
          <CharString index="31">
            115 123 rlineto
            -73 callgsubr
            rlineto
            return
          </CharString>
          <CharString index="32">
            -12 rmoveto
            41 hlineto
            367 683 rlineto
            -42 hlineto
            -366 43 callgsubr
            endchar
          </CharString>
          <CharString index="33">
            328 -99 callgsubr
          </CharString>
          <CharString index="34">
            20 241 -12 rmoveto
            124 70 121 213 212 -70 117 -124 -123 -70 -117 -212 -213 70 -121 123 hvcurveto
            44 vmoveto
            -86 -56 96 194 193 56 92 86 86 56 -92 -193 -194 -56 -96 -86 hvcurveto
            endchar
          </CharString>
          <CharString index="35">
            0 callsubr
            hvcurveto
            9 45 -64 callgsubr
            return
          </CharString>
          <CharString index="36">
            27 21 -122 160 122 158 -27 23 -137 -160 rlineto
            -42 vlineto
            137 -160 rlineto
            return
          </CharString>
          <CharString index="37">
            180 87 112 131 130 88 -112 -180 return
          </CharString>
          <CharString index="38">
            -23 -18 -18 -24 -26 18 return
          </CharString>
          <CharString index="39">
            705 rmoveto
            112 97 rlineto
            -61 callsubr
            rlineto
            return
          </CharString>
          <CharString index="40">
            -145 225 -12 -84 callsubr
            return
          </CharString>
          <CharString index="41">
            144 96 hmoveto
            156 hlineto
            -11 callsubr
            -155 15 callsubr
            53 45 rmoveto
            569 97 vlineto
            -12 callsubr
            -97 hlineto
            return
          </CharString>
          <CharString index="42">
            36 callgsubr
            -27 21 -13 -89 callsubr
            return
          </CharString>
          <CharString index="43">
            157 76 -32 callgsubr
            478 -208 -92 callsubr
            return
          </CharString>
          <CharString index="44">
            55 32 48 64 3 hvcurveto
            -37 3 rlineto
            -45 -6 -19 -29 -29 -53 -23 78 -77 hhcurveto
            -55 -32 -48 -65 -3 hvcurveto
            37 -3 rlineto
            46 4 21 28 29 return
          </CharString>
          <CharString index="45">
            20 93 hmoveto
            38 hlineto
            26 212 rlineto
            146 hlineto
            -25 -212 rlineto
            38 hlineto
            26 212 rlineto
            90 40 -85 hlineto
            20 166 rlineto
            85 40 -81 9 callgsubr
            -147 9 callgsubr
            -92 -40 88 hlineto
            -21 -166 rlineto
            -87 -40 82 hlineto
            -25 -212 rlineto
            69 252 rmoveto
            20 166 rlineto
            147 hlineto
            -21 -166 rlineto
            -146 hlineto
            endchar
          </CharString>
          <CharString index="46">
            4 hlineto
            112 -97 23 21 -111 113 rlineto
            -52 hlineto
            -111 -113 23 -21 return
          </CharString>
          <CharString index="47">
            20 140 45 rmoveto
            4 vlineto
            45 45 25 48 81 vvcurveto
            25 -3 22 -4 22 vhcurveto
            155 39 -165 hlineto
            -13 50 -17 46 51 vvcurveto
            72 43 57 80 51 34 -26 -33 27 vhcurveto
            33 31 rlineto
            39 -32 -45 33 -69 hhcurveto
            -106 -67 -67 -106 -51 17 -47 14 -49 hvcurveto
            -23 hlineto
            -66 -3 rlineto
            -36 99 vlineto
            5 -23 4 -22 -24 vvcurveto
            -77 -33 -74 -73 -41 vhcurveto
            -31 376 45 -292 vlineto
            endchar
          </CharString>
          <CharString index="48">
            90 41 64 61 7 hvcurveto
            -36 6 rlineto
            -50 -7 -32 -44 -63 hhcurveto
            -63 -31 44 50 -7 hvcurveto
            -36 -6 rlineto
            -61 7 41 -64 89 hhcurveto
            return
          </CharString>
          <CharString index="49">
            118 96 hmoveto
            195 hlineto
            148 97 65 127 91 -56 53 -85 15 hvcurveto
            4 vlineto
            66 20 35 55 68 vvcurveto
            111 -86 49 -133 vhcurveto
            -181 15 callsubr
            53 371 rmoveto
            244 116 vlineto
            117 62 -33 -89 -76 -54 -46 -130 hvcurveto
            -111 hlineto
            -327 vmoveto
            284 129 vlineto
            131 75 -44 -92 -102 -78 -46 -128 hvcurveto
            -129 hlineto
            return
          </CharString>
          <CharString index="50">
            -123 138 396 rmoveto
            43 35 23 23 27 hvcurveto
            4 hlineto
            7 -38 rlineto
            33 199 hlineto
            77 -27 50 -78 -52 -48 -24 -18 -28 vhcurveto
            17 -31 rlineto
            17 24 43 20 39 hhcurveto
            54 14 -39 -49 hvcurveto
            -141 -14 -63 -34 -71 vvcurveto
            -57 40 -34 57 vhcurveto
            12 35 rmoveto
            -41 -25 19 41 43 42 30 120 13 hvcurveto
            -99 vlineto
            -32 -35 -32 -15 -29 hhcurveto
            endchar
          </CharString>
          <CharString index="51">
            -178 224 49 callsubr
            36 32 -29 hlineto
            -60 -15 32 69 hvcurveto
            64 5 55 71 vvcurveto
            58 -12 35 -41 12 vhcurveto
            4 vlineto
            41 12 12 33 60 71 -5 55 64 vvcurveto
            69 15 32 60 vhcurveto
            29 32 -36 hlineto
            -75 -36 -27 -102 hvcurveto
            -73 8 -61 -71 vvcurveto
            -39 -17 -39 -69 vhcurveto
            -36 vlineto
            69 17 -39 -41 hvcurveto
            -69 -8 -61 -73 vvcurveto
            -101 36 -28 75 vhcurveto
            endchar
          </CharString>
          <CharString index="52">
            100 96 hmoveto
            53 223 hlineto
            130 149 214 -372 rlineto
            60 hlineto
            -239 413 210 245 rlineto
            -62 hlineto
            -311 -359 rlineto
            -2 359 53 callgsubr
            return
          </CharString>
          <CharString index="53">
            180 71 rmoveto
            -71 callsubr
            return
          </CharString>
          <CharString index="54">
            -381 -165 -75 callsubr
          </CharString>
          <CharString index="55">
            7 90 hmoveto
            51 130 hlineto
            104 123 156 -253 rlineto
            57 hlineto
            -183 290 158 191 rlineto
            -59 hlineto
            -231 -284 rlineto
            -2 521 -51 -718 hlineto
            return
          </CharString>
          <CharString index="56">
            120 699 rmoveto
            -65 callsubr
            return
          </CharString>
          <CharString index="57">
            130 538 299 rmoveto
            196 -5 -92 60 -106 hhcurveto
            -70 -67 -40 -86 -27 hvcurveto
            -55 121 rlineto
            -56 hlineto
            77 -160 -76 -390 rlineto
            55 hlineto
            73 389 rlineto
            62 18 39 57 84 hhcurveto
            83 67 -47 -162 5 hvcurveto
            5 -202 -81 -92 -168 38 -7 -45 rcurveline
            199 -42 111 108 -6 235 rrcurveto
            return
          </CharString>
          <CharString index="58">
            40 42 26 56 30 hvcurveto
            -32 22 rlineto
            -46 -23 -26 -17 -29 -58 -45 89 -78 hhcurveto
            -40 -42 -26 -58 -30 hvcurveto
            32 -20 rlineto
            46 23 26 17 29 58 45 -89 78 hhcurveto
            return
          </CharString>
          <CharString index="59">
            153 108 368 rmoveto
            42 269 106 39 -254 -39 106 -269 hlineto
            200 hmoveto
            41 157 hlineto
            -6 100 41 callsubr
            81 -209 rlineto
            37 hlineto
            80 209 41 callsubr
            -5 -100 rlineto
            -157 41 308 -56 vlineto
            -50 -124 -30 -84 27 callsubr
            -30 84 -51 124 rlineto
            -56 -308 hlineto
            endchar
          </CharString>
          <CharString index="60">
            25 callsubr
            154 134 -3 rlineto
            48 vlineto
            -134 -4 3 201 -3 201 -53 callgsubr
            -201 3 -201 -134 4 rlineto
            -48 vlineto
            134 3 -3 -154 rlineto
            endchar
          </CharString>
          <CharString index="61">
            -131 182 396 rmoveto
            46 35 17 17 28 hvcurveto
            -18 30 rlineto
            -16 -23 -30 -13 -34 hhcurveto
            -68 -44 49 75 -1 hvcurveto
            227 hlineto
            2 15 0 5 12 vvcurveto
            54 -26 89 -101 -79 -66 -65 -102 -108 67 -59 85 vhcurveto
            -109 191 rmoveto
            66 8 38 42 57 hhcurveto
            66 22 -58 -50 hvcurveto
            -191 hlineto
            endchar
          </CharString>
          <CharString index="62">
            20 186 hmoveto
            55 hlineto
            10 250 36 157 153 201 rrcurveto
            31 -396 -45 333 vlineto
            -128 -179 -53 31 callgsubr
          </CharString>
          <CharString index="63">
            443 45 -377 hlineto
            373 583 rlineto
            30 -406 -45 340 vlineto
            -373 -582 rlineto
            -31 vlineto
            return
          </CharString>
          <CharString index="64">
            58 41 40 56 56 -41 40 -58 -58 -41 -40 -56 -56 41 -40 58 hvcurveto
            28 vmoveto
            -36 -28 27 41 41 28 27 36 35 28 -27 -41 -41 -28 -27 -35 hvcurveto
            return
          </CharString>
          <CharString index="65">
            -21 19 -24 -24 -22 -19 return
          </CharString>
          <CharString index="66">
            570 rmoveto
            -91 callgsubr
            return
          </CharString>
          <CharString index="67">
            -17 -12 -17 -14 -14 callsubr
            16 -17 hvcurveto
            return
          </CharString>
          <CharString index="68">
            -17 -12 -16 -14 return
          </CharString>
          <CharString index="69">
            -86 callsubr
            -153 -60 42 callsubr
            return
          </CharString>
          <CharString index="70">
            -57 -54 callsubr
            144 hmoveto
            12 callsubr
          </CharString>
          <CharString index="71">
            -20 37 rlineto
            -25 -36 -41 -17 -51 hhcurveto
            return
          </CharString>
          <CharString index="72">
            -57 -51 callgsubr
            144 hmoveto
            12 callgsubr
          </CharString>
          <CharString index="73">
            -162 -59 callgsubr
          </CharString>
          <CharString index="74">
            rmoveto
            60 52 26 37 42 hvcurveto
            -52 callgsubr
            -159 95 -93 125 hvcurveto
            endchar
          </CharString>
          <CharString index="75">
            58 57 40 30 56 hhcurveto
            75 31 -47 -100 hvcurveto
            return
          </CharString>
          <CharString index="76">
            80 270 550 rmoveto
            -165 hlineto
            -30 -145 -20 -112 22 -55 84 -20 rlinecurve
            16 38 -56 17 -13 44 19 87 rlinecurve
            20 100 rlineto
            116 hlineto
            101 48 -66 -133 hvcurveto
            -505 55 505 vlineto
            164 -1 -72 81 -124 hhcurveto
            return
          </CharString>
          <CharString index="77">
            77 49 hmoveto
            -44 callsubr
            return
          </CharString>
          <CharString index="78">
            rmoveto
            -25 callgsubr
            3 callgsubr
            hvcurveto
            endchar
          </CharString>
          <CharString index="79">
            -178 65 -175 rmoveto
            82 133 50 144 176 vvcurveto
            176 -50 144 -82 133 vhcurveto
            -32 -17 rlineto
            79 -126 40 -153 -157 vvcurveto
            -157 -40 -152 -79 -127 vhcurveto
            32 -17 rlineto
            endchar
          </CharString>
          <CharString index="80">
            -136 159 -38 -34 146 -151 return
          </CharString>
          <CharString index="81">
            -38 34 -136 -159 28 -26 return
          </CharString>
          <CharString index="82">
            -17 12 -14 17 return
          </CharString>
          <CharString index="83">
            5 50 hmoveto
            131 hlineto
            142 84 82 165 hvcurveto
            56 vlineto
            165 -84 82 -142 vhcurveto
            -131 -46 123 hlineto
            119 61 -66 -133 hvcurveto
            -59 vlineto
            -134 -61 -66 -119 vhcurveto
            -123 -46 hlineto
            return
          </CharString>
          <CharString index="84">
            179 96 hmoveto
            26 callgsubr
            658 -53 -286 -344 286 53 callgsubr
            return
          </CharString>
          <CharString index="85">
            -96 callsubr
            -125 -723 rmoveto
            53 return
          </CharString>
          <CharString index="86">
            53 265 hlineto
            197 393 46 callgsubr
            -97 -202 -21 -48 -25 -46 -25 -48 29 callsubr
            -24 48 -21 46 -23 48 -97 202 rcurveline
            -57 hlineto
            198 -393 rlineto
            -265 vlineto
            endchar
          </CharString>
          <CharString index="87">
            -101 179 396 rmoveto
            81 67 62 105 106 -67 61 -81 -81 -66 -61 -106 -105 66 -62 81 hvcurveto
            1 36 rmoveto
            -63 -41 54 77 79 41 52 63 62 41 -52 -79 -77 -41 -54 -62 hvcurveto
            endchar
          </CharString>
          <CharString index="88">
            51 481 -51 15 callgsubr
          </CharString>
          <CharString index="89">
            -101 vlineto
            -66 -4 rlineto
            -40 66 -437 51 437 110 44 -110 99 vlineto
            68 24 38 50 return
          </CharString>
          <CharString index="90">
            -32 37 -127 -124 23 -26 return
          </CharString>
          <CharString index="91">
            25 callsubr
            597 -53 callgsubr
            -597 rlineto
            endchar
          </CharString>
          <CharString index="92">
            -237 105 553 -44 callgsubr
          </CharString>
          <CharString index="93">
            -16 12 -15 53 callsubr
            15 16 15 -11 return
          </CharString>
          <CharString index="94">
            -128 124 -32 -37 136 -113 return
          </CharString>
          <CharString index="95">
            174 77 -112 -171 -170 -77 -116 -174 hvcurveto
            return
          </CharString>
          <CharString index="96">
            202 98 130 201 202 -98 125 -203 hvcurveto
            return
          </CharString>
          <CharString index="97">
            -220 rmoveto
            19 callsubr
            29 67 rlineto
            -38 hlineto
            -42 -88 7 callsubr
            endchar
          </CharString>
          <CharString index="98">
            -60 -39 62 110 110 39 60 60 60 40 -60 -110 -110 -40 -62 -60 hvcurveto
            return
          </CharString>
          <CharString index="99">
            -22 191 hmoveto
            61 hlineto
            176 481 rlineto
            -52 hlineto
            -104 -296 -48 -139 27 callsubr
            -16 44 -17 49 -15 46 -105 296 rcurveline
            -55 hlineto
            179 -481 rlineto
            return
          </CharString>
          <CharString index="100">
            -161 41 228 rmoveto
            221 44 -221 -44 hlineto
            endchar
          </CharString>
          <CharString index="101">
            93 468 rmoveto
            -17 callgsubr
            return
          </CharString>
          <CharString index="102">
            20 callsubr
            hvcurveto
            return
          </CharString>
          <CharString index="103">
            61 291 240 rmoveto
            29 418 -44 hlineto
            -137 -98 -57 -152 -149 103 -60 147 hvcurveto
            83 -320 rmoveto
            53 738 -53 -738 hlineto
            endchar
          </CharString>
          <CharString index="104">
            rmoveto
            15 -11 15 -17 -92 callgsubr
            vhcurveto
            endchar
          </CharString>
          <CharString index="105">
            59 406 46 rmoveto
            318 vlineto
            20 callgsubr
            -184 -46 175 hlineto
            72 31 callsubr
            -320 -296 -46 423 46 -72 vlineto
            return
          </CharString>
          <CharString index="106">
            65 237 hmoveto
            53 613 207 45 -468 -45 208 -613 hlineto
            return
          </CharString>
          <CharString index="107">
            -99 -98 -155 -162 78 -90 121 return
          </CharString>
          <CharString index="108">
            vmoveto
            2 callgsubr
          </CharString>
          <CharString index="109">
            54 433 hlineto
            -13 callgsubr
            -433 vlineto
            return
          </CharString>
          <CharString index="110">
            -41 hlineto
            -31 -18 -41 -15 -53 -8 rrcurveto
            -35 115 return
          </CharString>
          <CharString index="111">
            17 11 16 16 14 -11 16 -17 return
          </CharString>
          <CharString index="112">
            72 320 9 callsubr
            74 46 -415 -46 287 hlineto
            -18 -27 -9 -41 -49 vvcurveto
            -387 vlineto
            return
          </CharString>
          <CharString index="113">
            38 371 -200 rmoveto
            54 564 35 callsubr
            -46 189 hlineto
            73 31 callsubr
            -566 vlineto
            return
          </CharString>
          <CharString index="114">
            rlineto
            55 -8 23 -14 -28 vvcurveto
            -30 -26 -16 -86 -6 vhcurveto
            7 -32 rlineto
            return
          </CharString>
          <CharString index="115">
            7 98 550 rmoveto
            167 -52 -213 318 vlineto
            -198 -504 rlineto
            55 hlineto
            197 502 rlineto
            48 -320 vlineto
            return
          </CharString>
          <CharString index="116">
            hmoveto
            55 387 hlineto
            36 5 47 21 34 vhcurveto
            return
          </CharString>
          <CharString index="117">
            5 337 hmoveto
            55 364 hlineto
            20 callgsubr
            -180 -46 171 hlineto
            73 48 -34 -104 hvcurveto
            -366 vlineto
            return
          </CharString>
          <CharString index="118">
            261 -74 callgsubr
            -70 -9 42 callsubr
            return
          </CharString>
          <CharString index="119">
            -71 callsubr
            endchar
          </CharString>
          <CharString index="120">
            14 callsubr
            -128 -58 -57 return
          </CharString>
          <CharString index="121">
            113 98 96 164 149 -64 96 return
          </CharString>
          <CharString index="122">
            -658 hlineto
            return
          </CharString>
          <CharString index="123">
            34 hlineto
            70 -83 rmoveto
            -40 callsubr
            endchar
          </CharString>
          <CharString index="124">
            -178 23 49 callsubr
            163 860 -163 -32 123 -796 -123 -32 hlineto
            endchar
          </CharString>
          <CharString index="125">
            15 callsubr
            endchar
          </CharString>
          <CharString index="126">
            96 6 53 26 54 vvcurveto
            40 -28 19 -43 10 vhcurveto
            return
          </CharString>
          <CharString index="127">
            -11 15 -17 return
          </CharString>
          <CharString index="128">
            -106 9 -160 rmoveto
            42 hlineto
            298 870 rlineto
            -42 hlineto
            -298 -870 rlineto
            endchar
          </CharString>
          <CharString index="129">
            -53 18 callsubr
          </CharString>
          <CharString index="130">
            594 30 callsubr
            return
          </CharString>
          <CharString index="131">
            -61 -11 -42 -53 -19 -18 5 4 return
          </CharString>
          <CharString index="132">
            -35 190 -80 rmoveto
            47 hlineto
            -3 return
          </CharString>
          <CharString index="133">
            265 rmoveto
            40 return
          </CharString>
          <CharString index="134">
            rlineto
            -4 hlineto
            return
          </CharString>
          <CharString index="135">
            -89 callgsubr
            endchar
          </CharString>
          <CharString index="136">
            rlinecurve
            -4 hlineto
            return
          </CharString>
          <CharString index="137">
            rmoveto
            -101 callsubr
            return
          </CharString>
          <CharString index="138">
            49 -34 -104 hvcurveto
            return
          </CharString>
          <CharString index="139">
            49 40 35 52 53 -40 34 -49 -51 -39 -34 -53 -52 39 -35 51 hvcurveto
            return
          </CharString>
          <CharString index="140">
            23 20 17 26 25 -20 17 -23 -24 -20 -17 -25 -26 20 -17 24 hvcurveto
            return
          </CharString>
          <CharString index="141">
            rmoveto
            22 callgsubr
          </CharString>
          <CharString index="142">
            41 callgsubr
            -100 vhcurveto
            -199 return
          </CharString>
          <CharString index="143">
            24 callsubr
            -13 vhcurveto
            -11 -41 rlineto
            -6 15 return
          </CharString>
          <CharString index="144">
            39 767 rmoveto
            40 callgsubr
            63 -63 rlineto
            return
          </CharString>
          <CharString index="145">
            18 41 231 rmoveto
            399 40 -399 -40 hlineto
            endchar
          </CharString>
          <CharString index="146">
            -55 -74 -132 -133 55 -75 return
          </CharString>
          <CharString index="147">
            14 -13 17 20 13 13 return
          </CharString>
          <CharString index="148">
            rlineto
            4 hlineto
            return
          </CharString>
          <CharString index="149">
            rmoveto
            -156 -34 return
          </CharString>
          <CharString index="150">
            79 34 49 95 hvcurveto
            564 -51 -561 vlineto
            return
          </CharString>
          <CharString index="151">
            97 141 -38 22 -89 -149 30 -14 rlineto
            return
          </CharString>
          <CharString index="152">
            16 9 3 3 10 return
          </CharString>
          <CharString index="153">
            34 49 95 hvcurveto
            668 vlineto
            61 13 42 return
          </CharString>
          <CharString index="154">
            -237 113 return
          </CharString>
          <CharString index="155">
            -39 768 rmoveto
            25 24 -62 66 rlineto
            return
          </CharString>
          <CharString index="156">
            -152 rmoveto
            return
          </CharString>
          <CharString index="157">
            rmoveto
            5 callgsubr
            return
          </CharString>
          <CharString index="158">
            30 25 -22 -37 -38 -25 -21 -30 return
          </CharString>
          <CharString index="159">
            -100 rlineto
            37 hlineto
            return
          </CharString>
          <CharString index="160">
            17 17 11 return
          </CharString>
        <CharString name=".notdef">
          174 93 hmoveto
          450 660 -450 -660 hlineto
          223 375 rmoveto
          -53 92 -83 148 rlineto
          275 hlineto
          -83 -148 -52 -92 27 callsubr
          -174 -286 rmoveto
          506 vlineto
          143 -255 -143 -251 rlineto
          350 hmoveto
          -141 251 141 255 rlineto
          -506 vlineto
          -326 -46 rmoveto
          91 158 59 104 41 callsubr
          59 -104 88 -158 rlineto
          -301 hlineto
          endchar
        </CharString>
        <CharString name="A">
          68 466 hmoveto
          -105 callgsubr
        </CharString>
        <CharString name="AE">
          350 462 45 rmoveto
          48 callgsubr
          293 45 -375 vlineto
          -361 -658 rlineto
          56 hlineto
          115 212 rlineto
          219 -212 356 45 -303 hlineto
          -248 211 rmoveto
          70 129 121 229 rlineto
          4 -358 -195 hlineto
          endchar
        </CharString>
        <CharString name="Aacute">
          68 380 818 rmoveto
          -17 callsubr
          136 113 rlineto
          86 -818 -103 callgsubr
        </CharString>
        <CharString name="Abreve">
          68 264 -40 callgsubr
          202 -709 -103 callgsubr
        </CharString>
        <CharString name="Acircumflex">
          68 262 802 rmoveto
          -61 callsubr
          112 97 rlineto
          204 -802 -103 callgsubr
        </CharString>
        <CharString name="Adieresis">
          68 166 -96 callsubr
          103 -723 -103 callgsubr
        </CharString>
        <CharString name="Agrave">
          68 308 731 rmoveto
          -13 callsubr
          24 26 rlineto
          158 -731 -103 callgsubr
        </CharString>
        <CharString name="Amacron">
          68 390 781 rmoveto
          -251 -40 251 40 hlineto
          76 -781 -103 callgsubr
        </CharString>
        <CharString name="Aring">
          68 264 699 rmoveto
          32 callsubr
          146 vmoveto
          51 callsubr
          51 callgsubr
          hvcurveto
          202 -845 -103 callgsubr
        </CharString>
        <CharString name="Atilde">
          68 188 794 rmoveto
          54 22 -77 77 hhcurveto
          -63 callsubr
          hhcurveto
          278 -794 -103 callgsubr
        </CharString>
        <CharString name="B">
          -58 callsubr
          endchar
        </CharString>
        <CharString name="Bethb">
          78 endchar
        </CharString>
        <CharString name="C">
          104 332 -12 -75 callgsubr
        </CharString>
        <CharString name="Ccaron">
          104 296 -66 callgsubr
          36 -720 -75 callgsubr
        </CharString>
        <CharString name="Ccedilla">
          104 332 -12 -75 callgsubr
        </CharString>
        <CharString name="D">
          -66 callsubr
          endchar
        </CharString>
        <CharString name="E">
          55 96 hmoveto
          -78 callgsubr
        </CharString>
        <CharString name="Eacute">
          55 263 -58 callgsubr
          -167 -705 -71 callgsubr
        </CharString>
        <CharString name="Ebreve">
          55 283 -40 callgsubr
          -187 -709 -71 callgsubr
        </CharString>
        <CharString name="Ecircumflex">
          55 169 -68 callsubr
          -73 -705 -71 callgsubr
        </CharString>
        <CharString name="Edieresis">
          55 185 -96 callsubr
          -286 -723 -71 callgsubr
        </CharString>
        <CharString name="Egrave">
          55 303 -36 callgsubr
          -207 -705 -71 callgsubr
        </CharString>
        <CharString name="Emacron">
          55 158 -14 callgsubr
          -62 -741 -71 callgsubr
        </CharString>
        <CharString name="Eogonek">
          55 415 -206 rmoveto
          23 29 11 14 16 hvcurveto
          -17 29 rlineto
          -9 -13 -13 -5 -17 hhcurveto
          -25 -25 17 34 58 49 49 45 8 hvcurveto
          3 -83 callgsubr
          306 hlineto
          -39 -25 -34 -46 -52 vvcurveto
          -55 39 -28 47 vhcurveto
          endchar
        </CharString>
        <CharString name="Eth">
          165 272 658 rmoveto
          -155 -292 hlineto
          -81 -3 rlineto
          -33 81 -330 156 vlineto
          -11 callsubr
          -5 -613 rmoveto
          -97 285 160 36 -160 248 97 hlineto
          -12 callsubr
          endchar
        </CharString>
        <CharString name="Euro">
          -102 callsubr
        </CharString>
        <CharString name="Euro.001">
          -102 callsubr
        </CharString>
        <CharString name="Euro.heb">
          78 endchar
        </CharString>
        <CharString name="Euro.heb.001">
          78 endchar
        </CharString>
        <CharString name="Euro.lat">
          -102 callsubr
        </CharString>
        <CharString name="Euro.lat.001">
          -102 callsubr
        </CharString>
        <CharString name="F">
          18 96 hmoveto
          53 313 262 45 -262 255 310 45 -363 18 callsubr
        </CharString>
        <CharString name="G">
          145 340 -12 -93 callgsubr
        </CharString>
        <CharString name="Gcaron">
          145 320 -66 callgsubr
          20 -720 -93 callgsubr
        </CharString>
        <CharString name="Gdotaccent">
          145 346 720 rmoveto
          33 callsubr
          -6 -732 -93 callgsubr
        </CharString>
        <CharString name="H">
          -23 callsubr
          endchar
        </CharString>
        <CharString name="Hbar">
          212 639 530 rmoveto
          -73 128 -53 -128 -344 128 -53 -128 hlineto
          -80 -4 rlineto
          -32 80 -494 26 callgsubr
          494 73 36 vlineto
          -126 -158 rmoveto
          -344 122 344 -122 hlineto
          endchar
        </CharString>
        <CharString name="I">
          -217 96 hmoveto
          22 callgsubr
        </CharString>
        <CharString name="Iacute">
          -217 102 -58 callgsubr
          -6 42 callgsubr
        </CharString>
        <CharString name="Icircumflex">
          -217 8 -68 callsubr
          88 42 callgsubr
        </CharString>
        <CharString name="Idieresis">
          -217 24 -22 callsubr
          658 53 callgsubr
          endchar
        </CharString>
        <CharString name="Igrave">
          -217 142 -36 callgsubr
          -46 42 callgsubr
        </CharString>
        <CharString name="Imacron">
          -217 -3 -14 callgsubr
          99 -741 34 callsubr
        </CharString>
        <CharString name="J">
          4 205 -12 rmoveto
          121 46 86 108 hvcurveto
          476 -53 -471 vlineto
          -105 -38 -46 -78 -53 -39 21 56 -32 vhcurveto
          -40 -27 rlineto
          -63 34 57 -35 75 hhcurveto
          endchar
        </CharString>
        <CharString name="K">
          -55 callsubr
          endchar
        </CharString>
        <CharString name="L">
          9 96 hmoveto
          353 45 -300 613 22 callsubr
        </CharString>
        <CharString name="Lslash">
          10 154 45 rmoveto
          234 vlineto
          204 106 -21 36 -183 -97 rlineto
          334 -53 -358 vlineto
          -99 -52 21 -36 78 42 rlineto
          -254 353 45 -300 vlineto
          endchar
        </CharString>
        <CharString name="M">
          248 96 hmoveto
          49 420 hlineto
          54 -4 71 -3 56 vhcurveto
          4 hlineto
          52 -148 139 -382 rlineto
          43 hlineto
          139 382 51 148 41 callsubr
          -3 -56 -3 -71 -54 vvcurveto
          -420 50 658 -72 vlineto
          -134 -379 -18 -48 -15 -49 -17 -48 29 callsubr
          -51 145 -135 379 rlineto
          -72 18 callsubr
        </CharString>
        <CharString name="N">
          176 96 hmoveto
          -24 callgsubr
        </CharString>
        <CharString name="Ntilde">
          176 401 -54 callgsubr
          -305 -717 rmoveto
          -24 callgsubr
        </CharString>
        <CharString name="O">
          193 327 -12 -103 callsubr
        </CharString>
        <CharString name="OE">
          374 367 hmoveto
          421 45 -302 48 callgsubr
          292 45 -409 hlineto
          -208 -107 -125 -202 -201 107 -130 206 hvcurveto
          6 45 rmoveto
          -179 -85 115 171 171 85 112 179 hvcurveto
          60 -569 -60 hlineto
          endchar
        </CharString>
        <CharString name="Oacute">
          193 307 -58 callgsubr
          20 -717 -103 callsubr
        </CharString>
        <CharString name="Obreve">
          193 327 -40 callgsubr
          -721 vmoveto
          -105 callsubr
        </CharString>
        <CharString name="Ocircumflex">
          193 213 -68 callsubr
          114 -717 -103 callsubr
        </CharString>
        <CharString name="Odieresis">
          193 229 -96 callsubr
          -99 -735 -103 callsubr
        </CharString>
        <CharString name="Ograve">
          193 347 -36 callgsubr
          -20 -717 -103 callsubr
        </CharString>
        <CharString name="Omacron">
          193 202 -14 callgsubr
          125 -753 -103 callsubr
        </CharString>
        <CharString name="Oslash">
          193 534 570 rmoveto
          66 89 -32 23 -61 -81 rlineto
          45 -47 -60 25 -70 hhcurveto
          -39 callgsubr
          -98 25 -81 43 -59 hvcurveto
          -70 -93 32 -24 64 86 rlineto
          -48 47 62 -26 70 hhcurveto
          -31 callgsubr
          99 -26 82 -43 58 hvcurveto
          -422 -239 rmoveto
          180 87 112 131 58 50 -23 -41 38 vhcurveto
          -318 -422 rlineto
          -29 50 -17 66 78 vvcurveto
          218 -295 rmoveto
          -60 -50 24 43 -38 hvcurveto
          318 423 rlineto
          31 -49 17 -66 -80 vvcurveto
          -179 -88 -116 -130 vhcurveto
          endchar
        </CharString>
        <CharString name="Otilde">
          193 404 -54 callgsubr
          -77 -729 -103 callsubr
        </CharString>
        <CharString name="P">
          90 96 hmoveto
          53 279 121 49 callgsubr
          -91 48 -149 hvcurveto
          -170 15 callsubr
          53 323 rmoveto
          291 106 vlineto
          132 65 -34 -107 -105 -63 -45 -130 hvcurveto
          -110 hlineto
          endchar
        </CharString>
        <CharString name="Q">
          193 594 -101 rmoveto
          -5 -16 -21 -4 -30 hhcurveto
          -79 -61 35 65 -29 hvcurveto
          143 16 99 130 195 vvcurveto
          -77 callsubr
          -197 101 -130 144 -15 vhcurveto
          -84 34 76 -62 113 hhcurveto
          34 32 6 6 17 hvcurveto
          -11 44 rlineto
          -485 432 rmoveto
          -70 callsubr
          -180 -88 -118 -130 -131 -87 118 180 vhcurveto
          endchar
        </CharString>
        <CharString name="R">
          86 521 hmoveto
          -179 302 rlineto
          101 15 64 61 104 vvcurveto
          129 -88 47 -131 vhcurveto
          -192 -658 53 298 136 hlineto
          174 -298 rlineto
          62 hlineto
          -372 614 rmoveto
          127 hlineto
          113 64 -35 -97 -95 -64 -45 -113 hvcurveto
          -127 272 hlineto
          endchar
        </CharString>
        <CharString name="S">
          61 270 -12 -96 callgsubr
          endchar
        </CharString>
        <CharString name="Sacute">
          61 252 -58 callgsubr
          18 -717 -96 callgsubr
          endchar
        </CharString>
        <CharString name="Scaron">
          61 246 -66 callgsubr
          24 -720 -96 callgsubr
          endchar
        </CharString>
        <CharString name="T">
          -1 callsubr
          endchar
        </CharString>
        <CharString name="Thorn">
          105 96 hmoveto
          53 163 131 49 callgsubr
          -89 48 -147 hvcurveto
          -131 116 53 callgsubr
          53 207 rmoveto
          291 120 vlineto
          130 63 -34 -107 -106 -63 -44 -130 hvcurveto
          -120 hlineto
          endchar
        </CharString>
        <CharString name="U">
          174 317 -12 -90 callgsubr
        </CharString>
        <CharString name="Uacute">
          174 297 -58 callgsubr
          20 -717 -90 callgsubr
        </CharString>
        <CharString name="Ucircumflex">
          174 203 -68 callsubr
          114 -717 -90 callgsubr
        </CharString>
        <CharString name="Udieresis">
          174 219 -96 callsubr
          -99 -735 -90 callgsubr
        </CharString>
        <CharString name="Ugrave">
          174 337 -36 callgsubr
          -20 -717 -90 callgsubr
        </CharString>
        <CharString name="Umacron">
          174 192 -14 callgsubr
          125 -753 -90 callgsubr
        </CharString>
        <CharString name="V">
          -18 callgsubr
          endchar
        </CharString>
        <CharString name="W">
          311 175 hmoveto
          59 hlineto
          115 442 11 51 13 46 11 51 rlinecurve
          5 hlineto
          11 -51 11 -46 12 -51 116 -442 rcurveline
          60 hlineto
          145 658 rlineto
          -52 hlineto
          -80 -382 -14 -71 -13 -72 -15 -71 29 callsubr
          -51 214 -102 382 rlineto
          -52 hlineto
          -101 -382 -17 -71 -17 -72 -15 -71 29 callsubr
          -15 71 -15 72 -14 71 -81 382 rcurveline
          -55 hlineto
          148 -658 rlineto
          endchar
        </CharString>
        <CharString name="X">
          26 17 hmoveto
          55 hlineto
          111 198 17 32 18 32 20 40 rlinecurve
          4 hlineto
          23 -40 19 -32 18 -32 111 -198 rcurveline
          58 hlineto
          -196 338 183 320 rlineto
          -55 hlineto
          -104 -189 -18 -30 -12 -24 -19 -37 29 callsubr
          -21 37 -14 24 -18 30 -105 189 rcurveline
          -58 hlineto
          183 -317 -196 -341 rlineto
          endchar
        </CharString>
        <CharString name="Y">
          -10 200 hmoveto
          -21 callsubr
        </CharString>
        <CharString name="Yacute">
          -10 206 -58 callgsubr
          -6 -705 rmoveto
          -21 callsubr
        </CharString>
        <CharString name="Ydieresis">
          -10 128 -22 callsubr
          265 hlineto
          197 393 46 callgsubr
          -97 -202 -21 -48 -25 -46 -25 -48 29 callsubr
          -24 48 -21 46 -23 48 -97 202 rcurveline
          -57 hlineto
          198 -393 rlineto
          -265 vlineto
          endchar
        </CharString>
        <CharString name="Z">
          -30 callsubr
          endchar
        </CharString>
        <CharString name="ZWJ">
          -150 785 rmoveto
          34 73 233 -73 34 109 -301 -109 hlineto
          endchar
        </CharString>
        <CharString name="ZWNJ">
          -81 767 rmoveto
          81 81 79 -80 24 24 -79 83 79 82 -24 25 -79 -82 -81 84 -23 -27 78 -82 -78 -83 23 -25 rlineto
          endchar
        </CharString>
        <CharString name="Zcaron">
          77 253 -66 callgsubr
          -204 -708 rmoveto
          -44 callsubr
          endchar
        </CharString>
        <CharString name="a">
          32 197 -12 -107 callsubr
        </CharString>
        <CharString name="a.sups">
          -57 callsubr
        </CharString>
        <CharString name="aacute">
          32 239 -65 callgsubr
          -42 -586 -107 callsubr
        </CharString>
        <CharString name="abreve">
          32 265 -41 callsubr
          -68 -582 -107 callsubr
        </CharString>
        <CharString name="acircumflex">
          32 148 -72 callgsubr
          49 -584 -107 callsubr
        </CharString>
        <CharString name="acute">
          74 242 -65 callgsubr
          endchar
        </CharString>
        <CharString name="acutecomb">
          -26 -65 callgsubr
          endchar
        </CharString>
        <CharString name="acutecomb.cap">
          -20 -58 callgsubr
          endchar
        </CharString>
        <CharString name="adieresis">
          32 174 -98 callgsubr
          -158 -608 -107 callsubr
        </CharString>
        <CharString name="ae">
          322 204 -12 rmoveto
          61 77 37 60 63 hvcurveto
          -49 36 51 -48 85 hhcurveto
          70 41 23 25 39 hvcurveto
          -21 38 rlineto
          -25 -36 -37 -17 -51 hhcurveto
          -94 -72 83 117 -1 hvcurveto
          329 hlineto
          2 12 0 12 13 vvcurveto
          141 -66 83 -113 -70 -61 -46 -70 -35 vhcurveto
          70 -17 -46 46 -77 hhcurveto
          -72 -66 -37 -25 -36 hvcurveto
          22 -38 rlineto
          25 34 55 31 58 hhcurveto
          92 19 -75 -72 -1 hvcurveto
          -205 -23 -97 -52 -107 vvcurveto
          -89 63 -43 77 vhcurveto
          211 282 rmoveto
          107 10 63 73 78 hhcurveto
          83 50 -61 -119 hvcurveto
          -284 hlineto
          -200 -238 rmoveto
          -54 -45 25 67 74 69 44 181 22 hvcurveto
          1 -26 rlineto
          -44 7 -45 13 -28 vhcurveto
          -57 -52 -70 -32 -50 hhcurveto
          endchar
        </CharString>
        <CharString name="agrave">
          32 291 -45 callgsubr
          -94 -586 -107 callsubr
        </CharString>
        <CharString name="alphalatin">
          84 250 -12 rmoveto
          63 54 35 39 39 hvcurveto
          2 hlineto
          -48 3 14 -26 40 hhcurveto
          15 8 2 3 9 hvcurveto
          -5 42 rlineto
          -2 -9 -4 0 -4 hhcurveto
          -12 -8 9 21 hvcurveto
          418 -44 vlineto
          -3 -46 rlineto
          -3 hlineto
          37 -44 -40 21 -57 hhcurveto
          -114 -72 callsubr
          endchar
        </CharString>
        <CharString name="amacron">
          32 140 0 callgsubr
          57 -617 -107 callsubr
        </CharString>
        <CharString name="ampersand">
          -81 callgsubr
        </CharString>
        <CharString name="ampersand.lat">
          -81 callgsubr
        </CharString>
        <CharString name="approxequal">
          20 331 368 rmoveto
          -49 callsubr
          -206 vmoveto
          -49 callsubr
          endchar
        </CharString>
        <CharString name="aring">
          32 265 549 rmoveto
          -43 callsubr
          -68 -589 -107 callsubr
        </CharString>
        <CharString name="asciicircum">
          -3 callgsubr
        </CharString>
        <CharString name="asciicircum.lat">
          -3 callgsubr
        </CharString>
        <CharString name="asciitilde">
          20 331 265 rmoveto
          -49 callsubr
          endchar
        </CharString>
        <CharString name="asterisk">
          -9 callgsubr
        </CharString>
        <CharString name="asterisk.lat">
          -9 callgsubr
        </CharString>
        <CharString name="at">
          -86 callgsubr
        </CharString>
        <CharString name="at.lat">
          -86 callgsubr
        </CharString>
        <CharString name="atilde">
          32 340 -87 callsubr
          -143 -591 -107 callsubr
        </CharString>
        <CharString name="b">
          -49 callgsubr
          endchar
        </CharString>
        <CharString name="backslash">
          19 callgsubr
        </CharString>
        <CharString name="backslash.lat">
          19 callgsubr
        </CharString>
        <CharString name="bar">
          -233 94 -250 rmoveto
          40 1000 -40 -1000 hlineto
          endchar
        </CharString>
        <CharString name="braceleft">
          -56 callsubr
        </CharString>
        <CharString name="braceleft.lat">
          -56 callsubr
        </CharString>
        <CharString name="braceright">
          -56 callgsubr
        </CharString>
        <CharString name="braceright.lat">
          -56 callgsubr
        </CharString>
        <CharString name="bracketleft">
          18 callgsubr
        </CharString>
        <CharString name="bracketleft.lat">
          18 callgsubr
        </CharString>
        <CharString name="bracketright">
          17 callsubr
        </CharString>
        <CharString name="bracketright.lat">
          17 callsubr
        </CharString>
        <CharString name="breve">
          74 268 -41 callsubr
          endchar
        </CharString>
        <CharString name="brokenbar">
          -233 94 667 rmoveto
          -831 40 831 -40 vlineto
          endchar
        </CharString>
        <CharString name="bullet">
          13 callgsubr
        </CharString>
        <CharString name="bullet.lat">
          13 callgsubr
        </CharString>
        <CharString name="c">
          -12 271 -12 -33 callsubr
        </CharString>
        <CharString name="caron">
          74 243 -83 callsubr
          endchar
        </CharString>
        <CharString name="ccaron">
          -12 245 -83 callsubr
          26 -585 -33 callsubr
        </CharString>
        <CharString name="ccedilla">
          -12 267 -65 rmoveto
          23 54 52 5 46 24 37 33 rlinecurve
          -52 callgsubr
          -151 85 -91 116 -9 hvcurveto
          -36 -75 7 callsubr
          19 callsubr
          endchar
        </CharString>
        <CharString name="cedilla">
          74 189 -10 callsubr
        </CharString>
        <CharString name="cent">
          -60 callgsubr
        </CharString>
        <CharString name="cent.heb">
          78 endchar
        </CharString>
        <CharString name="cent.lat">
          -60 callgsubr
        </CharString>
        <CharString name="chi">
          -3 61 -191 rmoveto
          168 309 41 callsubr
          181 -309 49 15 -206 339 174 318 rlineto
          -56 hlineto
          -142 -270 27 callsubr
          -163 282 -51 -15 190 -315 -195 -342 51 -12 rlineto
          endchar
        </CharString>
        <CharString name="circledotted">
          127 309 489 rmoveto
          -17 -14 -12 -22 -21 14 -13 17 20 14 13 21 22 -15 12 -19 hvcurveto
          -121 -23 rmoveto
          -17 -14 -10 -24 -20 40 callsubr
          20 24 -15 10 -18 hvcurveto
          224 -80 rmoveto
          6 5 1 3 5 hvcurveto
          -5 -6 -3 -8 -9 vvcurveto
          -21 15 -13 16 20 12 13 21 21 -14 12 -18 -5 -5 -1 -3 -5 vhcurveto
          5 6 3 8 10 vvcurveto
          22 -14 11 -18 -17 -14 -11 -22 -20 14 -14 17 vhcurveto
          -303 -1 rmoveto
          -17 -14 -11 -22 -22 40 callsubr
          22 22 -14 11 -19 hvcurveto
          7 -144 rmoveto
          22 -15 11 -20 -16 -14 -11 -22 -22 14 -12 16 21 14 12 22 vhcurveto
          390 33 rmoveto
          -18 -14 -11 -22 -22 14 -12 18 19 14 12 22 22 -16 11 -17 hvcurveto
          -397 -109 rmoveto
          -17 -14 -12 -22 -21 40 callsubr
          21 22 -14 12 -19 hvcurveto
          370 hmoveto
          -17 -15 -12 -22 -21 15 -13 17 20 12 13 21 22 -14 12 -18 hvcurveto
          -291 -83 rmoveto
          -17 -14 -11 -20 -23 40 callsubr
          23 20 -15 11 -18 hvcurveto
          211 hmoveto
          -16 -14 -11 -20 -23 14 -13 16 21 12 13 23 20 -14 11 -19 hvcurveto
          -105 -27 rmoveto
          -17 -14 -12 -21 -22 14 -12 17 19 14 12 22 21 -14 12 -19 hvcurveto
          endchar
        </CharString>
        <CharString name="circumflex">
          74 151 -72 callgsubr
          endchar
        </CharString>
        <CharString name="colon">
          16 callgsubr
          -378 vmoveto
          28 callsubr
        </CharString>
        <CharString name="comma">
          -237 117 86 -4 callgsubr
        </CharString>
        <CharString name="copyright">
          -78 callsubr
        </CharString>
        <CharString name="copyright.lat">
          -78 callsubr
        </CharString>
        <CharString name="currency">
          20 60 112 rmoveto
          66 68 rlineto
          -28 31 41 -15 43 hhcurveto
          43 41 15 28 31 hvcurveto
          67 -68 30 31 -66 67 rlineto
          23 32 15 40 46 vvcurveto
          48 -15 41 -23 32 vhcurveto
          66 68 -30 31 -67 -69 rlineto
          27 -32 -40 16 -43 hhcurveto
          -43 -41 -16 -27 -31 hvcurveto
          -66 69 -30 -31 65 -68 rlineto
          -23 -32 -14 -41 -48 vvcurveto
          -46 14 -40 23 -32 vhcurveto
          -65 -67 30 -31 rlineto
          181 66 rmoveto
          -72 -61 61 89 90 61 62 72 73 61 -62 -90 -89 -61 -61 -73 hvcurveto
          endchar
        </CharString>
        <CharString name="d">
          -85 callsubr
          endchar
        </CharString>
        <CharString name="dagger">
          -16 callsubr
        </CharString>
        <CharString name="dagger.lat">
          -16 callsubr
        </CharString>
        <CharString name="daggerdbl">
          -47 callsubr
        </CharString>
        <CharString name="daggerdbl.lat">
          -47 callsubr
        </CharString>
        <CharString name="degree">
          -20 callgsubr
        </CharString>
        <CharString name="degree.lat">
          -20 callgsubr
        </CharString>
        <CharString name="dieresis">
          74 177 -98 callgsubr
          endchar
        </CharString>
        <CharString name="divide">
          20 241 466 rmoveto
          23 18 18 26 25 -18 17 -23 -23 -18 -17 -25 -26 18 -18 23 hvcurveto
          -207 -157 50 callsubr
          207 -202 rmoveto
          23 18 17 -94 callgsubr
          -17 23 hvcurveto
          endchar
        </CharString>
        <CharString name="dollar">
          -55 callgsubr
        </CharString>
        <CharString name="dollar.heb">
          78 endchar
        </CharString>
        <CharString name="dollar.lat">
          -55 callgsubr
        </CharString>
        <CharString name="dotaccent">
          74 268 23 callsubr
          endchar
        </CharString>
        <CharString name="dotbelowcomb">
          -197 vmoveto
          -100 callgsubr
        </CharString>
        <CharString name="dotlessi">
          -230 90 hmoveto
          -19 callsubr
        </CharString>
        <CharString name="dotlessj">
          -243 30 -227 rmoveto
          43 callsubr
          28 callgsubr
          endchar
        </CharString>
        <CharString name="e">
          23 448 270 -104 callsubr
        </CharString>
        <CharString name="e.sups">
          -46 callsubr
        </CharString>
        <CharString name="eacute">
          23 383 725 rmoveto
          -26 callsubr
          146 151 rlineto
          65 -455 -104 callsubr
        </CharString>
        <CharString name="ebreve">
          23 263 -41 callsubr
          185 -300 -104 callsubr
        </CharString>
        <CharString name="ecircumflex">
          23 261 695 rmoveto
          -73 callgsubr
          115 123 rlineto
          187 -425 -104 callsubr
        </CharString>
        <CharString name="edieresis">
          23 172 -98 callgsubr
          95 -326 -104 callsubr
        </CharString>
        <CharString name="egrave">
          23 317 600 rmoveto
          -27 callsubr
          28 26 rlineto
          131 -330 -104 callsubr
        </CharString>
        <CharString name="eight">
          -93 callsubr
        </CharString>
        <CharString name="eight.heb">
          -93 callsubr
        </CharString>
        <CharString name="eight.lat">
          -93 callsubr
        </CharString>
        <CharString name="eight.pnumheb">
          20 endchar
        </CharString>
        <CharString name="eight.pnumlat">
          20 endchar
        </CharString>
        <CharString name="ellipsis">
          537 167 -12 -79 callsubr
          334 hmoveto
          -89 callgsubr
          334 hmoveto
          28 callsubr
        </CharString>
        <CharString name="emacron">
          23 388 645 rmoveto
          -250 -40 250 40 hlineto
          60 -375 -104 callsubr
        </CharString>
        <CharString name="emdash">
          38 callgsubr
        </CharString>
        <CharString name="emdash.lat">
          38 callgsubr
        </CharString>
        <CharString name="endash">
          38 callsubr
        </CharString>
        <CharString name="endash.lat">
          38 callsubr
        </CharString>
        <CharString name="eogonek">
          23 356 -203 rmoveto
          22 29 10 14 16 hvcurveto
          -17 28 rlineto
          -9 -13 -12 -5 -17 hhcurveto
          -26 -23 17 34 43 27 43 86 64 hvcurveto
          -36 callsubr
          -105 -69 83 118 -3 hvcurveto
          342 hlineto
          2 12 1 13 13 vvcurveto
          -79 callgsubr
          21 19 2 7 20 vhcurveto
          -27 -24 -35 -45 -49 vvcurveto
          -56 36 -26 47 vhcurveto
          -254 476 rmoveto
          111 10 71 66 79 hhcurveto
          84 54 -60 -117 hvcurveto
          -298 hlineto
          endchar
        </CharString>
        <CharString name="eogonek.sups">
          -46 callsubr
        </CharString>
        <CharString name="equal">
          20 34 412 50 callsubr
          -206 vmoveto
          5 callgsubr
          endchar
        </CharString>
        <CharString name="estimated">
          338 400 -12 rmoveto
          114 102 52 80 66 hvcurveto
          -52 hlineto
          -68 -56 -82 -44 -90 hhcurveto
          -86 -78 38 62 -54 hvcurveto
          -4 6 -4 6 8 vvcurveto
          184 vlineto
          2 2 2 2 vhcurveto
          574 8 hlineto
          186 -158 150 -196 -196 -158 -150 -186 -186 158 -150 196 vhcurveto
          -220 346 rmoveto
          -2 -2 2 4 hvcurveto
          180 vlineto
          8 4 8 4 6 vhcurveto
          60 56 76 38 86 hhcurveto
          82 76 -36 -58 56 hvcurveto
          6 -6 4 -8 -8 vvcurveto
          -184 vlineto
          -4 -2 -2 -4 vhcurveto
          -440 hlineto
          endchar
        </CharString>
        <CharString name="eth">
          75 337 606 rmoveto
          132 69 -16 30 -143 -74 -42 37 -47 31 -49 26 rlinecurve
          -24 -34 43 -25 41 -26 37 -30 rlinecurve
          -131 -68 17 -30 141 73 55 -54 41 -68 19 -94 rlinecurve
          49 -39 -51 25 -56 hhcurveto
          -122 -85 -91 -132 -145 101 -87 108 121 84 105 160 161 -56 111 -79 81 hvcurveto
          -69 -573 rmoveto
          -87 -72 76 111 98 55 82 105 49 51 -16 -71 49 hvcurveto
          2 -20 1 -20 -22 vvcurveto
          -123 -48 -95 -105 vhcurveto
          endchar
        </CharString>
        <CharString name="exclam">
          -21 callgsubr
        </CharString>
        <CharString name="exclam.lat">
          -21 callgsubr
        </CharString>
        <CharString name="exclamdown">
          -197 133 -6 callgsubr
          -27 -585 rmoveto
          53 hlineto
          -1 75 -7 413 rlineto
          -37 hlineto
          -7 -413 -1 -75 rlineto
          endchar
        </CharString>
        <CharString name="exclamdown.lat">
          -197 endchar
        </CharString>
        <CharString name="f">
          -194 223 686 rmoveto
          18 20 -4 -9 19 hvcurveto
          14 callgsubr
          -18 callsubr
          vhcurveto
          endchar
        </CharString>
        <CharString name="fi">
          38 -22 callgsubr
          287 98 -27 callgsubr
          -27 -680 -19 callgsubr
        </CharString>
        <CharString name="five">
          -81 callsubr
        </CharString>
        <CharString name="five.heb">
          -81 callsubr
        </CharString>
        <CharString name="five.lat">
          -81 callsubr
        </CharString>
        <CharString name="five.pnumheb">
          20 endchar
        </CharString>
        <CharString name="five.pnumlat">
          20 endchar
        </CharString>
        <CharString name="fl">
          46 -22 callgsubr
          351 -547 rmoveto
          -8 callgsubr
          45 callsubr
          vhcurveto
          -8 41 rlineto
          endchar
        </CharString>
        <CharString name="florin">
          -61 callgsubr
        </CharString>
        <CharString name="florin.heb">
          78 endchar
        </CharString>
        <CharString name="florin.lat">
          -61 callgsubr
        </CharString>
        <CharString name="four">
          -68 callgsubr
        </CharString>
        <CharString name="four.heb">
          -68 callgsubr
        </CharString>
        <CharString name="four.lat">
          -68 callgsubr
        </CharString>
        <CharString name="four.pnumheb">
          20 endchar
        </CharString>
        <CharString name="four.pnumlat">
          20 endchar
        </CharString>
        <CharString name="fraction">
          -53 callsubr
        </CharString>
        <CharString name="fraction.lat">
          -53 callsubr
        </CharString>
        <CharString name="g">
          28 248 -230 -104 callgsubr
        </CharString>
        <CharString name="gammalatin">
          -22 252 27 rmoveto
          176 454 rlineto
          -52 hlineto
          -104 -283 -16 -45 -17 -37 -15 -43 29 callsubr
          -16 43 -17 37 -15 45 -105 283 rcurveline
          -55 hlineto
          179 -454 rlineto
          13 hlineto
          -24 -70 -18 -46 -41 vvcurveto
          -49 18 -35 42 41 19 35 49 41 -19 46 -24 70 vhcurveto
          13 hlineto
          -30 -233 rmoveto
          -12 0 33 43 28 5 35 7 37 hvcurveto
          7 -36 5 -34 -30 vvcurveto
          -43 0 -33 -12 vhcurveto
          endchar
        </CharString>
        <CharString name="gcaron">
          28 228 -83 callsubr
          20 -803 -104 callgsubr
        </CharString>
        <CharString name="gdotaccent">
          28 253 23 callsubr
          -5 -824 -104 callgsubr
        </CharString>
        <CharString name="germandbls">
          87 371 -12 rmoveto
          87 61 61 80 hvcurveto
          167 -207 -32 112 78 97 35 103 vvcurveto
          76 -53 60 -90 -108 -68 -76 -123 vhcurveto
          -529 51 514 vlineto
          116 48 54 75 62 31 -41 -56 vhcurveto
          -89 -96 -31 -96 -143 207 33 -135 vvcurveto
          -49 -33 -46 -65 -42 -33 15 31 -37 vhcurveto
          -24 -38 rlineto
          -32 38 46 -19 53 hhcurveto
          endchar
        </CharString>
        <CharString name="glottalstopreversedsupmod">
          -179 134 404 rmoveto
          42 215 hlineto
          -79 43 -36 38 60 vvcurveto
          53 35 36 62 46 29 -24 -25 21 vhcurveto
          23 27 rlineto
          28 -24 -38 29 -59 hhcurveto
          -77 -61 -43 -81 -77 49 -42 67 -43 hvcurveto
          -194 vlineto
          endchar
        </CharString>
        <CharString name="grave">
          74 294 -45 callgsubr
          endchar
        </CharString>
        <CharString name="gravecomb">
          26 -45 callgsubr
          endchar
        </CharString>
        <CharString name="gravecomb.cap">
          20 -36 callgsubr
          endchar
        </CharString>
        <CharString name="greater">
          20 34 143 rmoveto
          414 165 rlineto
          48 vlineto
          -414 165 rlineto
          -49 vlineto
          361 -138 rlineto
          -4 vlineto
          -361 -138 rlineto
          -49 vlineto
          endchar
        </CharString>
        <CharString name="greaterequal">
          20 34 152 rmoveto
          414 159 rlineto
          51 vlineto
          -414 159 rlineto
          -49 vlineto
          228 -85 133 -48 rlineto
          -5 vlineto
          -133 -48 -228 -85 rlineto
          -49 vlineto
          -152 vmoveto
          5 callgsubr
          endchar
        </CharString>
        <CharString name="guillemotleft">
          -37 callsubr
        </CharString>
        <CharString name="guillemotleft.lat">
          -37 callsubr
        </CharString>
        <CharString name="guillemotright">
          -35 callsubr
        </CharString>
        <CharString name="guillemotright.lat">
          -35 callsubr
        </CharString>
        <CharString name="guilsinglleft">
          -201 -54 callsubr
          endchar
        </CharString>
        <CharString name="guilsinglleft.lat">
          -201 -54 callsubr
          endchar
        </CharString>
        <CharString name="guilsinglright">
          -201 -51 callgsubr
          endchar
        </CharString>
        <CharString name="guilsinglright.lat">
          -201 -51 callgsubr
          endchar
        </CharString>
        <CharString name="h">
          -77 callgsubr
          endchar
        </CharString>
        <CharString name="hbar">
          69 305 458 rmoveto
          -66 -50 -37 -49 -49 hvcurveto
          1 105 rlineto
          102 188 36 -188 103 -51 -103 vlineto
          -76 -5 rlineto
          -31 76 -579 51 325 vlineto
          -32 callsubr
          -266 51 273 vlineto
          124 -46 61 -100 vhcurveto
          endchar
        </CharString>
        <CharString name="hungarumlaut">
          74 218 7 callgsubr
        </CharString>
        <CharString name="hyphen">
          -7 callsubr
        </CharString>
        <CharString name="i">
          -230 117 23 callsubr
          -27 -594 -19 callgsubr
        </CharString>
        <CharString name="iacute">
          -230 91 -65 callgsubr
          -1 -574 -19 callgsubr
        </CharString>
        <CharString name="icircumflex">
          -230 572 vmoveto
          -76 callsubr
          90 -572 -19 callgsubr
        </CharString>
        <CharString name="idieresis">
          -230 26 -98 callgsubr
          -117 -596 -19 callgsubr
        </CharString>
        <CharString name="igrave">
          -230 143 -45 callgsubr
          -53 -574 -19 callgsubr
        </CharString>
        <CharString name="imacron">
          -230 -8 0 callgsubr
          98 -605 -19 callgsubr
        </CharString>
        <CharString name="infinity">
          305 565 163 rmoveto
          95 65 72 98 97 -66 67 -96 -87 -63 -65 -61 -45 hvcurveto
          -4 hlineto
          47 -36 -54 63 -82 hhcurveto
          -85 -66 -59 -94 -85 66 -64 76 87 56 71 37 34 hvcurveto
          4 hlineto
          -72 60 55 -52 86 hhcurveto
          2 51 rmoveto
          -64 -50 39 82 -63 hvcurveto
          76 53 52 44 64 hhcurveto
          78 44 -53 -71 -64 -42 -53 -72 hvcurveto
          -378 7 rmoveto
          -56 -48 45 64 64 45 36 58 56 46 -41 -64 48 hvcurveto
          -56 -37 -51 -48 -61 hhcurveto
          endchar
        </CharString>
        <CharString name="integral">
          -157 100 -158 rmoveto
          94 21 95 125 hvcurveto
          140 -43 227 142 vvcurveto
          107 10 68 57 14 12 -2 -2 8 vhcurveto
          8 40 rlineto
          4 -7 -17 3 -18 hhcurveto
          -95 -21 -97 -123 hvcurveto
          -140 45 -229 -142 vvcurveto
          -107 -11 -66 -58 -14 -12 2 2 -8 vhcurveto
          -8 -41 rlineto
          -4 9 15 -2 19 hhcurveto
          endchar
        </CharString>
        <CharString name="ismall">
          -146 44 hmoveto
          228 44 -88 393 88 44 -228 -44 88 -393 -88 -44 hlineto
          endchar
        </CharString>
        <CharString name="j">
          -230 117 680 -27 callgsubr
          -25 -760 rmoveto
          28 callgsubr
          43 callsubr
          endchar
        </CharString>
        <CharString name="j.sups">
          -303 82 792 rmoveto
          19 14 14 19 19 -14 13 -19 -20 -14 -13 -19 -19 14 -14 20 hvcurveto
          -61 -537 rmoveto
          54 25 34 71 hvcurveto
          362 -42 -366 vlineto
          -40 -8 -24 -34 -13 -7 2 4 -9 vhcurveto
          -10 -35 rlineto
          -6 16 9 -2 19 hhcurveto
          endchar
        </CharString>
        <CharString name="k">
          -52 callsubr
          endchar
        </CharString>
        <CharString name="l">
          -7 callgsubr
        </CharString>
        <CharString name="lefttorightembed">
          37 callsubr
          -76 -36 76 hlineto
          -63 -66 25 -25 rlineto
          -168 91 52 callgsubr
        </CharString>
        <CharString name="less">
          20 448 143 rmoveto
          49 vlineto
          -361 138 rlineto
          4 vlineto
          361 138 rlineto
          49 vlineto
          -414 -165 rlineto
          -48 vlineto
          414 -165 rlineto
          endchar
        </CharString>
        <CharString name="lessequal">
          20 448 152 rmoveto
          49 vlineto
          -227 85 -134 48 rlineto
          5 vlineto
          134 48 227 85 rlineto
          49 vlineto
          -414 -159 rlineto
          -51 vlineto
          414 -159 rlineto
          -414 -152 50 callsubr
          endchar
        </CharString>
        <CharString name="litre">
          -82 343 77 rmoveto
          -23 -24 -25 -21 -42 hhcurveto
          -51 -44 39 106 hvcurveto
          39 vlineto
          110 104 81 134 128 vvcurveto
          96 -50 51 -66 -71 -55 -56 -148 vhcurveto
          -299 vlineto
          -25 -22 -27 -21 -28 -19 23 -34 rcurveline
          19 13 19 14 19 15 rrcurveto
          -6 vlineto
          -118 64 -61 76 53 39 30 26 28 vhcurveto
          -23 33 rlineto
          -110 611 rmoveto
          38 29 -29 -77 -107 -58 -108 -85 -90 hvcurveto
          260 vlineto
          103 35 48 41 vhcurveto
          endchar
        </CharString>
        <CharString name="logicalnot">
          20 402 109 rmoveto
          46 242 -414 -42 368 -200 hlineto
          endchar
        </CharString>
        <CharString name="lozenge">
          40 223 -10 rmoveto
          55 hlineto
          165 340 -165 340 rlineto
          -55 hlineto
          -165 -340 165 -340 rlineto
          26 44 rmoveto
          -67 138 -74 158 74 156 67 140 41 callsubr
          67 -140 73 -156 -73 -158 -67 -138 27 callsubr
          endchar
        </CharString>
        <CharString name="lslash">
          -219 165 33 rmoveto
          -12 -10 10 22 hvcurveto
          321 vlineto
          78 50 -21 35 -57 -38 rlineto
          285 -51 -313 vlineto
          -84 -53 21 -35 63 41 rlineto
          -287 vlineto
          -56 21 -27 43 45 callsubr
          vhcurveto
          -8 41 rlineto
          -2 -10 -4 0 -4 hhcurveto
          endchar
        </CharString>
        <CharString name="m">
          353 90 hmoveto
          51 360 hlineto
          59 52 46 29 42 hhcurveto
          71 33 -47 -100 hvcurveto
          -301 52 360 vlineto
          59 51 45 29 43 hhcurveto
          72 33 -47 -100 hvcurveto
          -301 51 308 vlineto
          124 -48 61 -96 -56 -53 -38 -59 -54 vhcurveto
          59 -17 -39 38 -77 hhcurveto
          -54 -54 -37 -48 -43 hvcurveto
          29 callgsubr
        </CharString>
        <CharString name="macron">
          74 143 0 callgsubr
          endchar
        </CharString>
        <CharString name="minus">
          20 34 309 50 callsubr
          endchar
        </CharString>
        <CharString name="multiply">
          20 81 133 rmoveto
          160 167 160 -167 30 32 -160 165 160 165 -30 32 -160 -167 -160 167 -30 -32 160 -165 -160 -165 30 -32 rlineto
          endchar
        </CharString>
        <CharString name="n">
          72 90 hmoveto
          -82 callgsubr
          -48 -48 vhcurveto
          29 callgsubr
        </CharString>
        <CharString name="newsheqel">
          20 endchar
        </CharString>
        <CharString name="newsheqel.heb">
          78 endchar
        </CharString>
        <CharString name="newsheqel.lat">
          14 endchar
        </CharString>
        <CharString name="nine">
          -87 callgsubr
        </CharString>
        <CharString name="nine.heb">
          -87 callgsubr
        </CharString>
        <CharString name="nine.lat">
          -87 callgsubr
        </CharString>
        <CharString name="nine.pnumheb">
          20 endchar
        </CharString>
        <CharString name="nine.pnumlat">
          20 endchar
        </CharString>
        <CharString name="notequal">
          20 65 78 rmoveto
          45 hlineto
          78 128 rlineto
          260 42 -235 hlineto
          101 164 rlineto
          134 42 -109 hlineto
          78 128 rlineto
          -45 hlineto
          -78 -128 rlineto
          -260 -42 235 hlineto
          -100 -164 rlineto
          -135 -42 110 hlineto
          -79 -128 rlineto
          endchar
        </CharString>
        <CharString name="ntilde">
          72 359 -87 callsubr
          -269 -579 rmoveto
          -82 callgsubr
          -48 -48 vhcurveto
          29 callgsubr
        </CharString>
        <CharString name="numbersign">
          -62 callsubr
        </CharString>
        <CharString name="numbersign.heb">
          78 endchar
        </CharString>
        <CharString name="numbersign.lat">
          -62 callsubr
        </CharString>
        <CharString name="o">
          74 268 -12 -99 callsubr
        </CharString>
        <CharString name="o.sups">
          -20 callsubr
        </CharString>
        <CharString name="oacute">
          74 242 -65 callgsubr
          26 -586 -99 callsubr
        </CharString>
        <CharString name="obreve">
          74 268 -41 callsubr
          -582 vmoveto
          -101 callgsubr
        </CharString>
        <CharString name="ocircumflex">
          74 151 -72 callgsubr
          117 -584 -99 callsubr
        </CharString>
        <CharString name="odieresis">
          74 177 -98 callgsubr
          -90 -608 -99 callsubr
        </CharString>
        <CharString name="oe">
          385 263 -12 rmoveto
          84 65 46 91 37 hvcurveto
          -84 35 70 -53 82 hhcurveto
          70 45 23 25 38 hvcurveto
          -20 38 rlineto
          -25 -36 -40 -17 -51 hhcurveto
          -95 -74 83 117 hvcurveto
          333 hlineto
          3 12 0 12 13 vvcurveto
          141 -69 83 -114 -76 -66 -53 -85 -36 vhcurveto
          91 -34 -74 47 -76 hhcurveto
          -113 -100 10 callgsubr
          99 -93 113 hvcurveto
          209 282 rmoveto
          107 10 65 73 77 hhcurveto
          84 53 -61 -119 hvcurveto
          -289 hlineto
          -209 -237 rmoveto
          -91 -68 -5 callgsubr
          68 86 91 94 66 -86 -123 -124 -66 -83 -94 hvcurveto
          endchar
        </CharString>
        <CharString name="ogonek">
          74 endchar
        </CharString>
        <CharString name="ograve">
          74 294 -45 callgsubr
          -26 -586 -99 callsubr
        </CharString>
        <CharString name="omacron">
          74 143 0 callgsubr
          125 -617 -99 callsubr
        </CharString>
        <CharString name="one">
          -34 callgsubr
        </CharString>
        <CharString name="one.heb">
          -34 callgsubr
        </CharString>
        <CharString name="one.lat">
          -34 callgsubr
        </CharString>
        <CharString name="one.pnumheb">
          -95 endchar
        </CharString>
        <CharString name="one.pnumlat">
          -112 171 hmoveto
          51 639 3 callsubr
          -563 vlineto
          endchar
        </CharString>
        <CharString name="one.sups">
          -99 endchar
        </CharString>
        <CharString name="one.supsheb">
          -75 endchar
        </CharString>
        <CharString name="one.supslat">
          -81 endchar
        </CharString>
        <CharString name="onehalf">
          328 161 -75 callsubr
        </CharString>
        <CharString name="onehalf.heb">
          78 endchar
        </CharString>
        <CharString name="onehalf.lat">
          328 160 35 callgsubr
          -2 241 rmoveto
          43 390 -37 hlineto
          45 callgsubr
          vlineto
          325 -229 rmoveto
          257 38 -187 hlineto
          97 96 68 64 80 vvcurveto
          82 -50 42 -73 -50 -47 -33 -41 -25 vhcurveto
          28 -24 rlineto
          33 22 31 28 36 hhcurveto
          51 33 -36 -56 -64 -60 -61 -131 -121 hvcurveto
          -27 vlineto
          endchar
        </CharString>
        <CharString name="onequarter">
          311 181 -75 callsubr
        </CharString>
        <CharString name="onequarter.heb">
          78 endchar
        </CharString>
        <CharString name="onequarter.lat">
          311 548 33 callgsubr
          -347 -442 rmoveto
          390 -37 vlineto
          45 callgsubr
          43 vlineto
          530 -83 -12 callgsubr
        </CharString>
        <CharString name="ordfeminine">
          -57 callsubr
        </CharString>
        <CharString name="ordmasculine">
          -20 callsubr
        </CharString>
        <CharString name="oslash">
          74 endchar
        </CharString>
        <CharString name="otilde">
          74 343 -87 callsubr
          -75 -591 -99 callsubr
        </CharString>
        <CharString name="p">
          84 90 -215 rmoveto
          51 174 hlineto
          -1 88 rlineto
          -38 49 49 -21 45 hhcurveto
          13 callsubr
          -34 -37 -46 hvcurveto
          -3 hlineto
          -5 59 rlineto
          -43 -696 hlineto
          -1 callgsubr
        </CharString>
        <CharString name="paragraph">
          -4 callsubr
        </CharString>
        <CharString name="paragraph.lat">
          -4 callsubr
        </CharString>
        <CharString name="parenleft">
          -28 callgsubr
        </CharString>
        <CharString name="parenleft.lat">
          -28 callgsubr
        </CharString>
        <CharString name="parenright">
          -28 callsubr
        </CharString>
        <CharString name="parenright.lat">
          -28 callsubr
        </CharString>
        <CharString name="partialdiff">
          42 265 671 rmoveto
          -58 -52 -25 -40 -37 hvcurveto
          26 -32 rlineto
          33 32 42 19 43 hhcurveto
          90 64 -68 -194 -14 0 -13 -1 -13 hvcurveto
          46 -43 -58 29 -59 hhcurveto
          -139 -78 -92 -129 -119 83 -71 92 153 102 152 225 217 -85 89 -117 hvcurveto
          -49 -638 rmoveto
          -69 -59 59 89 94 50 81 118 48 53 -22 -60 52 hvcurveto
          -143 -20 -69 -98 -104 hhcurveto
          endchar
        </CharString>
        <CharString name="percent">
          345 198 -75 callsubr
        </CharString>
        <CharString name="percent.heb">
          78 endchar
        </CharString>
        <CharString name="percent.lat">
          347 198 35 callgsubr
          -17 229 rmoveto
          88 55 75 134 37 callgsubr
          hvcurveto
          37 vmoveto
          21 callgsubr
          445 -266 rmoveto
          87 39 callgsubr
          -87 -88 39 callsubr
          88 hvcurveto
          -1 36 rmoveto
          -9 callsubr
          endchar
        </CharString>
        <CharString name="period">
          47 callsubr
          -12 -67 callgsubr
        </CharString>
        <CharString name="periodcentered">
          47 callsubr
          274 -67 callgsubr
        </CharString>
        <CharString name="periodcentered.lat">
          47 callsubr
          274 rmoveto
          32 callgsubr
          29 30 -42 callsubr
          -30 -29 22 -19 24 hvcurveto
          endchar
        </CharString>
        <CharString name="perthousand">
          -53 callsubr
        </CharString>
        <CharString name="perthousand.heb">
          78 endchar
        </CharString>
        <CharString name="perthousand.lat">
          706 504 671 rmoveto
          -172 -320 rlineto
          5 23 2 25 27 vvcurveto
          37 callgsubr
          30 26 9 17 22 vhcurveto
          -137 -255 rlineto
          8 callgsubr
          -308 -417 rmoveto
          21 callgsubr
          427 148 rmoveto
          -88 39 callsubr
          88 87 39 callgsubr
          -87 hvcurveto
          358 hmoveto
          -87 39 callsubr
          87 88 39 callgsubr
          -88 hvcurveto
          -359 -378 rmoveto
          -9 callsubr
          360 hmoveto
          -9 callsubr
          endchar
        </CharString>
        <CharString name="pi">
          100 467 -12 rmoveto
          24 16 5 4 16 hvcurveto
          -8 41 rlineto
          -3 -20 -12 -2 -8 hhcurveto
          -32 -14 15 34 58 2 174 6 122 hvcurveto
          99 45 -445 hlineto
          -67 -4 rlineto
          -41 114 vlineto
          -141 -13 -156 -21 -139 vhcurveto
          53 -3 rlineto
          14 138 15 156 145 vvcurveto
          201 hlineto
          -2 -118 -4 -171 -59 vvcurveto
          -68 25 -32 61 vhcurveto
          endchar
        </CharString>
        <CharString name="plus">
          20 218 109 rmoveto
          46 200 184 42 -184 200 -46 -200 -184 -42 184 -200 hlineto
          endchar
        </CharString>
        <CharString name="plusminus">
          20 218 112 rmoveto
          46 197 184 41 -184 201 -46 -201 -184 -41 184 -197 hlineto
          -184 -112 50 callsubr
          endchar
        </CharString>
        <CharString name="popdirectionformat">
          -19 765 rmoveto
          36 160 hlineto
          62 -64 25 26 -104 107 -104 -107 25 -26 60 63 rlineto
          -159 vlineto
          endchar
        </CharString>
        <CharString name="product">
          194 93 -120 rmoveto
          53 713 362 -713 55 759 -470 -759 hlineto
          endchar
        </CharString>
        <CharString name="q">
          84 404 -215 rmoveto
          51 696 -42 hlineto
          -5 -45 rlineto
          -3 hlineto
          36 -44 -40 21 -58 hhcurveto
          -113 0 callsubr
          62 53 34 40 42 hvcurveto
          -3 -94 rlineto
          -183 vlineto
          -145 248 -64 callgsubr
          endchar
        </CharString>
        <CharString name="question">
          -46 callgsubr
        </CharString>
        <CharString name="question.lat">
          -46 callgsubr
        </CharString>
        <CharString name="questiondown">
          -47 callgsubr
        </CharString>
        <CharString name="questiondown.lat">
          -47 callgsubr
        </CharString>
        <CharString name="quotedbl">
          -89 -6 callsubr
          148 hmoveto
          -17 callgsubr
          endchar
        </CharString>
        <CharString name="quotedbl.lat">
          -89 endchar
        </CharString>
        <CharString name="quotedblbase">
          -89 120 97 rmoveto
          -65 callsubr
          148 hmoveto
          -2 callgsubr
        </CharString>
        <CharString name="quotedblbase.lat">
          -89 endchar
        </CharString>
        <CharString name="quotedblleft">
          -89 166 675 rmoveto
          -37 callgsubr
          -3 -3 0 -1 -2 vhcurveto
          56 23 33 46 34 vhcurveto
          87 -122 -44 callgsubr
        </CharString>
        <CharString name="quotedblleft.lat">
          -89 endchar
        </CharString>
        <CharString name="quotedblright">
          -89 -51 callsubr
          148 hmoveto
          -2 callgsubr
        </CharString>
        <CharString name="quotedblright.lat">
          -89 endchar
        </CharString>
        <CharString name="quoteleft">
          -15 callsubr
        </CharString>
        <CharString name="quoteleft.lat">
          -15 callsubr
        </CharString>
        <CharString name="quoteright">
          -237 -51 callsubr
          endchar
        </CharString>
        <CharString name="quoteright.lat">
          -237 -51 callsubr
          endchar
        </CharString>
        <CharString name="quotesinglbase">
          -237 120 97 rmoveto
          -2 callgsubr
        </CharString>
        <CharString name="quotesinglbase.lat">
          47 callgsubr
          -26 21 -14 -89 callsubr
          endchar
        </CharString>
        <CharString name="quotesingle">
          -237 -6 callsubr
          endchar
        </CharString>
        <CharString name="quotesingle.lat">
          -237 -6 callsubr
          endchar
        </CharString>
        <CharString name="r">
          -139 90 hmoveto
          51 324 hlineto
          89 36 51 32 43 hhcurveto
          18 10 -2 -6 16 hvcurveto
          11 46 rlineto
          8 -16 -14 2 -19 hhcurveto
          -56 -48 -42 -59 -32 hvcurveto
          -3 hlineto
          -5 89 rlineto
          -43 15 callgsubr
        </CharString>
        <CharString name="radical">
          80 282 -103 rmoveto
          45 hlineto
          218 923 rlineto
          -43 hlineto
          -187 -803 -4 -18 -3 -18 -4 -18 29 callsubr
          -4 18 -5 18 -6 18 -124 371 rcurveline
          -114 -53 16 -33 69 31 150 -436 rlineto
          endchar
        </CharString>
        <CharString name="registered">
          -63 callgsubr
        </CharString>
        <CharString name="registered.lat">
          -63 callgsubr
        </CharString>
        <CharString name="righttoleftembed">
          48 callsubr
          75 36 -76 44 callgsubr
          80 90 52 callgsubr
        </CharString>
        <CharString name="ring">
          74 268 549 rmoveto
          -43 callsubr
          endchar
        </CharString>
        <CharString name="ringhalfleftmod">
          -301 endchar
        </CharString>
        <CharString name="ringhalfrightmod">
          -301 endchar
        </CharString>
        <CharString name="rsmall">
          16 438 hmoveto
          -138 210 rlineto
          68 13 53 42 82 vvcurveto
          99 -74 35 -100 vhcurveto
          -157 -481 51 206 109 hlineto
          130 -206 rlineto
          58 hlineto
          -296 247 rmoveto
          192 94 vlineto
          82 51 -28 -65 -65 -51 -34 -82 hvcurveto
          -94 hlineto
          endchar
        </CharString>
        <CharString name="rsmallinverted">
          16 336 481 rmoveto
          -202 -108 vlineto
          -130 202 rlineto
          -58 hlineto
          138 -206 rlineto
          -69 -13 -52 -44 -82 vvcurveto
          -99 73 -37 101 vhcurveto
          157 481 -52 hlineto
          1 -438 rmoveto
          -94 hlineto
          -82 -51 29 65 65 51 36 82 hvcurveto
          94 -195 hlineto
          endchar
        </CharString>
        <CharString name="s">
          -54 209 -12 -95 callgsubr
          endchar
        </CharString>
        <CharString name="sacute">
          -54 187 -65 callgsubr
          22 -586 -95 callgsubr
          endchar
        </CharString>
        <CharString name="scaron">
          -54 188 -83 callsubr
          21 -585 -95 callgsubr
          endchar
        </CharString>
        <CharString name="section">
          20 endchar
        </CharString>
        <CharString name="section.lat">
          20 endchar
        </CharString>
        <CharString name="semicolon">
          16 callgsubr
          4 -280 -4 callgsubr
        </CharString>
        <CharString name="seven">
          -45 callsubr
        </CharString>
        <CharString name="seven.heb">
          -45 callsubr
        </CharString>
        <CharString name="seven.lat">
          -45 callsubr
        </CharString>
        <CharString name="seven.pnumheb">
          19 endchar
        </CharString>
        <CharString name="seven.pnumlat">
          16 176 hmoveto
          55 hlineto
          10 250 34 157 151 201 rrcurveto
          31 -382 -45 319 vlineto
          -126 -179 -51 31 callgsubr
        </CharString>
        <CharString name="six">
          -88 callsubr
        </CharString>
        <CharString name="six.heb">
          -88 callsubr
        </CharString>
        <CharString name="six.lat">
          -88 callsubr
        </CharString>
        <CharString name="six.pnumheb">
          20 endchar
        </CharString>
        <CharString name="six.pnumlat">
          20 endchar
        </CharString>
        <CharString name="slash">
          21 callsubr
        </CharString>
        <CharString name="slash.lat">
          21 callsubr
        </CharString>
        <CharString name="space">
          -262 endchar
        </CharString>
        <CharString name="sterling">
          -60 callsubr
        </CharString>
        <CharString name="sterling.heb">
          78 endchar
        </CharString>
        <CharString name="sterling.lat">
          -60 callsubr
        </CharString>
        <CharString name="summation">
          28 19 -120 rmoveto
          470 45 -402 4 hlineto
          244 332 -233 329 rlineto
          4 361 45 -428 -37 vlineto
          241 -343 -253 -342 rlineto
          -37 vlineto
          endchar
        </CharString>
        <CharString name="t">
          -67 callsubr
          endchar
        </CharString>
        <CharString name="theta">
          47 254 -12 rmoveto
          120 70 112 262 236 -70 132 -120 -119 -71 -132 -236 -262 71 -112 119 hvcurveto
          45 vmoveto
          -80 -58 89 240 218 58 106 80 80 58 -106 -218 -240 -58 -89 -80 hvcurveto
          -161 310 rmoveto
          41 322 -41 -322 vlineto
          endchar
        </CharString>
        <CharString name="thorn">
          84 90 -215 rmoveto
          51 261 hlineto
          -37 48 48 -21 46 hhcurveto
          14 callsubr
          -129 -58 -55 -33 -36 -47 hvcurveto
          294 -51 -933 vlineto
          -1 callgsubr
        </CharString>
        <CharString name="three">
          -97 callgsubr
        </CharString>
        <CharString name="three.heb">
          -97 callgsubr
        </CharString>
        <CharString name="three.lat">
          -97 callgsubr
        </CharString>
        <CharString name="three.pnumheb">
          20 endchar
        </CharString>
        <CharString name="three.pnumlat">
          -97 callgsubr
        </CharString>
        <CharString name="three.sups">
          -99 endchar
        </CharString>
        <CharString name="three.supsheb">
          -75 endchar
        </CharString>
        <CharString name="three.supslat">
          -81 endchar
        </CharString>
        <CharString name="threequarters">
          328 223 -75 callsubr
        </CharString>
        <CharString name="threequarters.heb">
          78 endchar
        </CharString>
        <CharString name="threequarters.lat">
          328 590 33 callgsubr
          -280 -338 rmoveto
          54 -44 34 -46 9 vhcurveto
          42 17 32 33 48 vvcurveto
          65 -54 39 -66 -50 -40 -27 -36 -29 vhcurveto
          27 -25 rlineto
          30 25 32 21 30 hhcurveto
          50 31 -29 -42 -44 -43 -37 -76 hvcurveto
          -31 vlineto
          84 51 -27 -51 -51 -41 -29 -48 -43 -40 25 37 -23 hvcurveto
          -32 -24 rlineto
          -40 28 49 -35 61 hhcurveto
          74 59 44 72 hvcurveto
          438 -187 -12 callgsubr
        </CharString>
        <CharString name="tilde">
          74 343 -87 callsubr
          endchar
        </CharString>
        <CharString name="tildecomb">
          75 -87 callsubr
          endchar
        </CharString>
        <CharString name="tildecomb.cap">
          77 -54 callgsubr
          endchar
        </CharString>
        <CharString name="trademark">
          -48 callsubr
        </CharString>
        <CharString name="trademark.lat">
          -48 callsubr
        </CharString>
        <CharString name="two">
          -76 callgsubr
        </CharString>
        <CharString name="two.heb">
          -76 callgsubr
        </CharString>
        <CharString name="two.lat">
          -76 callgsubr
        </CharString>
        <CharString name="two.pnumheb">
          27 endchar
        </CharString>
        <CharString name="two.pnumlat">
          26 43 hmoveto
          392 45 -208 hlineto
          -35 -37 -2 -2 -36 hvcurveto
          172 182 114 122 125 vvcurveto
          109 -67 72 -114 -77 -56 -37 -58 -52 vhcurveto
          32 -31 rlineto
          47 39 51 35 57 hhcurveto
          94 41 -60 -78 -110 -105 -118 -205 -209 hvcurveto
          -32 vlineto
          endchar
        </CharString>
        <CharString name="two.sups">
          -99 endchar
        </CharString>
        <CharString name="two.supsheb">
          -75 endchar
        </CharString>
        <CharString name="two.supslat">
          -81 endchar
        </CharString>
        <CharString name="u">
          70 229 -12 -94 callsubr
        </CharString>
        <CharString name="uacute">
          70 242 -65 callgsubr
          -13 -586 -94 callsubr
        </CharString>
        <CharString name="ucircumflex">
          70 151 -72 callgsubr
          78 -584 -94 callsubr
        </CharString>
        <CharString name="udieresis">
          70 177 -98 callgsubr
          -129 -608 -94 callsubr
        </CharString>
        <CharString name="ugrave">
          70 294 -45 callgsubr
          -65 -586 -94 callsubr
        </CharString>
        <CharString name="umacron">
          70 143 0 callgsubr
          86 -617 -94 callsubr
        </CharString>
        <CharString name="underscore">
          38 12 -119 rmoveto
          476 42 -476 -42 hlineto
          endchar
        </CharString>
        <CharString name="uni00A0">
          -262 endchar
        </CharString>
        <CharString name="uni00AD">
          -7 callsubr
        </CharString>
        <CharString name="uni018F">
          188 327 671 rmoveto
          -84 -69 -33 -43 -44 hvcurveto
          28 -36 rlineto
          40 40 61 27 67 hhcurveto
          140 75 -105 -182 2 hvcurveto
          -480 hlineto
          -1 -5 0 -4 -5 vvcurveto
          -200 95 -137 166 166 107 126 217 217 -98 123 -171 vhcurveto
          -4 -638 rmoveto
          -120 -83 102 162 -4 hvcurveto
          426 hlineto
          -167 -9 -81 -97 -129 hhcurveto
          endchar
        </CharString>
        <CharString name="uni0250">
          39 267 -12 rmoveto
          73 64 38 25 34 hvcurveto
          -23 37 rlineto
          -25 -31 -52 -31 -60 hhcurveto
          -112 -27 80 67 1 hvcurveto
          213 24 95 56 112 vvcurveto
          83 -57 39 -72 -64 -65 -33 -50 -50 vhcurveto
          -3 hlineto
          -5 71 rlineto
          -43 -296 hlineto
          -110 47 -87 137 vhcurveto
          -133 229 rmoveto
          146 vlineto
          62 61 54 25 52 hhcurveto
          48 41 -24 -60 -78 -65 -47 -191 -24 hvcurveto
          endchar
        </CharString>
        <CharString name="uni0254">
          -12 179 -12 rmoveto
          123 97 93 159 163 -99 90 -110 -75 -43 -27 -32 -36 hvcurveto
          29 -35 rlineto
          30 32 35 20 53 hhcurveto
          90 70 -84 -125 -124 -69 -83 -100 -50 -43 24 30 -33 hvcurveto
          -25 -36 rlineto
          -37 42 52 -26 60 hhcurveto
          endchar
        </CharString>
        <CharString name="uni0259">
          23 232 -12 rmoveto
          116 87 97 156 161 -87 91 -119 -70 -50 -22 -28 -41 hvcurveto
          21 -38 rlineto
          26 38 42 19 54 hhcurveto
          99 59 -81 -110 2 hvcurveto
          -342 hlineto
          -2 -12 -1 -14 -13 vvcurveto
          -149 80 -83 114 vhcurveto
          -1 43 rmoveto
          -86 -60 60 128 hvcurveto
          298 hlineto
          -117 -10 -54 -71 -88 hhcurveto
          endchar
        </CharString>
        <CharString name="uni025B">
          -33 240 -12 rmoveto
          67 47 17 40 53 hvcurveto
          -24 37 rlineto
          -36 -47 -39 -15 -51 hhcurveto
          -84 -58 40 63 62 54 36 93 hvcurveto
          62 41 -48 hlineto
          -93 -40 38 51 60 51 28 60 46 36 -17 -26 37 hvcurveto
          23 36 rlineto
          31 -39 -44 19 -59 hhcurveto
          -88 -76 -42 -83 -49 31 -42 51 -19 hvcurveto
          -5 vlineto
          -54 -14 -55 -38 -71 vvcurveto
          -85 79 -57 109 vhcurveto
          endchar
        </CharString>
        <CharString name="uni026B">
          -7 callgsubr
        </CharString>
        <CharString name="uni0283">
          -230 30 -227 rmoveto
          78 46 callsubr
          61 15 14 -5 -4 10 vhcurveto
          12 40 rlineto
          7 -14 23 callgsubr
          -12 vhcurveto
          -12 -41 rlineto
          -6 15 25 -6 24 hhcurveto
          endchar
        </CharString>
        <CharString name="uni028E">
          -20 12 hmoveto
          52 hlineto
          99 296 14 41 15 51 15 43 rlinecurve
          4 hlineto
          17 -43 19 -51 15 -41 113 -296 rcurveline
          55 hlineto
          -197 489 24 72 rlineto
          71 24 39 52 58 hhcurveto
          13 16 -4 -3 9 hvcurveto
          12 43 rlineto
          6 -14 -18 4 -19 hhcurveto
          -88 -49 -77 -83 -28 hvcurveto
          -200 -570 rlineto
          endchar
        </CharString>
        <CharString name="uni0292">
          -54 194 -227 rmoveto
          100 97 77 138 124 -88 86 -139 -25 hvcurveto
          207 281 rlineto
          27 -324 -44 259 vlineto
          -211 -285 25 -34 rlineto
          12 24 13 7 29 hhcurveto
          99 53 -58 -93 -101 -67 -68 -78 -81 -45 33 34 -36 hvcurveto
          -28 -35 rlineto
          -37 39 56 -39 96 hhcurveto
          endchar
        </CharString>
        <CharString name="uni0294">
          -60 154 hmoveto
          51 300 hlineto
          102 63 74 64 117 vvcurveto
          121 -85 65 -108 -93 -57 -45 -41 -38 vhcurveto
          30 -35 rlineto
          39 33 47 38 76 hhcurveto
          91 51 -57 -85 -93 -57 -59 -117 -64 hvcurveto
          -328 vlineto
          endchar
        </CharString>
        <CharString name="uni0295">
          -49 201 hmoveto
          52 328 hlineto
          -117 64 -57 59 93 vvcurveto
          85 55 57 96 72 43 -38 -39 32 vhcurveto
          30 35 rlineto
          41 -37 -53 45 -88 hhcurveto
          -115 -88 -65 -121 -117 74 -64 101 -63 hvcurveto
          -300 vlineto
          endchar
        </CharString>
        <CharString name="uni02A4">
          399 endchar
        </CharString>
        <CharString name="uni02A6">
          -102 endchar
        </CharString>
        <CharString name="uni02A7">
          -102 344 -227 rmoveto
          79 46 callsubr
          60 15 15 -5 -4 10 vhcurveto
          11 40 rlineto
          7 -13 23 callgsubr
          -13 vhcurveto
          -11 -41 rlineto
          -6 15 25 -6 23 hhcurveto
          -119 215 -84 callsubr
          endchar
        </CharString>
        <CharString name="uni02B9">
          -237 endchar
        </CharString>
        <CharString name="uni02C8">
          -363 32 530 rmoveto
          36 hlineto
          6 191 rlineto
          -48 hlineto
          6 -191 rlineto
          endchar
        </CharString>
        <CharString name="uni02D0">
          -237 91 296 rmoveto
          42 hlineto
          21 111 rlineto
          -84 hlineto
          21 -111 rlineto
          -21 -252 rmoveto
          84 hlineto
          -21 113 rlineto
          -42 hlineto
          -21 -113 rlineto
          endchar
        </CharString>
        <CharString name="uni0302">
          -117 -72 callgsubr
          endchar
        </CharString>
        <CharString name="uni0302.cap">
          -114 -68 callsubr
          endchar
        </CharString>
        <CharString name="uni0304">
          -125 0 callgsubr
          endchar
        </CharString>
        <CharString name="uni0304.cap">
          -125 -14 callgsubr
          endchar
        </CharString>
        <CharString name="uni0306">
          570 1 callsubr
        </CharString>
        <CharString name="uni0306.cap">
          709 vmoveto
          -59 callsubr
          endchar
        </CharString>
        <CharString name="uni0307">
          594 vmoveto
          -100 callgsubr
        </CharString>
        <CharString name="uni0307.cap">
          720 vmoveto
          33 callsubr
          endchar
        </CharString>
        <CharString name="uni0308">
          -91 -98 callgsubr
          endchar
        </CharString>
        <CharString name="uni0308.cap">
          -98 -96 callsubr
          endchar
        </CharString>
        <CharString name="uni030A">
          549 vmoveto
          -43 callsubr
          endchar
        </CharString>
        <CharString name="uni030A.cap">
          699 vmoveto
          32 callsubr
          28 vmoveto
          51 callgsubr
          51 callsubr
          hvcurveto
          endchar
        </CharString>
        <CharString name="uni030B">
          -50 7 callgsubr
        </CharString>
        <CharString name="uni030B.cap">
          -57 707 rmoveto
          44 callsubr
          147 hmoveto
          44 callsubr
          endchar
        </CharString>
        <CharString name="uni030C">
          -25 -83 callsubr
          endchar
        </CharString>
        <CharString name="uni030C.cap">
          -26 -66 callgsubr
          endchar
        </CharString>
        <CharString name="uni031E">
          -18 -245 rmoveto
          37 106 71 36 -180 -36 72 -106 hlineto
          endchar
        </CharString>
        <CharString name="uni0327">
          -79 -10 callsubr
        </CharString>
        <CharString name="uni032E">
          -231 1 callsubr
        </CharString>
        <CharString name="uni0331">
          -125 -34 callsubr
        </CharString>
        <CharString name="uni0361">
          -436 557 rmoveto
          79 127 155 39 154 hhcurveto
          154 156 -39 -79 126 hvcurveto
          17 29 rlineto
          82 -133 -147 47 -173 hhcurveto
          -173 -147 -47 -82 -133 hvcurveto
          17 -29 rlineto
          endchar
        </CharString>
        <CharString name="uni0394.math">
          101 endchar
        </CharString>
        <CharString name="uni03A9.math">
          201 endchar
        </CharString>
        <CharString name="uni03BC.math">
          85 endchar
        </CharString>
        <CharString name="uni05B0">
          64 -74 callgsubr
          -92 vmoveto
          -40 callsubr
          endchar
        </CharString>
        <CharString name="uni05B1">
          64 -74 callgsubr
          104 hmoveto
          -90 callsubr
          104 hmoveto
          -90 callsubr
          -157 -92 rmoveto
          -40 callsubr
          157 hmoveto
          -40 callsubr
          endchar
        </CharString>
        <CharString name="uni05B2">
          11 callsubr
          156 16 callsubr
        </CharString>
        <CharString name="uni05B3">
          11 callsubr
          67 hlineto
          -8 52 callsubr
          -7 100 rlineto
          67 16 callsubr
        </CharString>
        <CharString name="uni05B4">
          64 -74 callgsubr
          endchar
        </CharString>
        <CharString name="uni05B5">
          64 -74 callgsubr
          107 hmoveto
          -90 callsubr
          endchar
        </CharString>
        <CharString name="uni05B6">
          64 -74 callgsubr
          107 hmoveto
          -90 callsubr
          -54 -83 rmoveto
          -17 -12 -15 -14 -17 12 -15 53 callsubr
          15 17 14 -5 callsubr
          endchar
        </CharString>
        <CharString name="uni05B7">
          191 -69 42 callsubr
          156 34 hlineto
          endchar
        </CharString>
        <CharString name="uni05B8">
          191 -69 42 callsubr
          67 hlineto
          -8 52 callsubr
          -7 100 rlineto
          67 34 hlineto
          endchar
        </CharString>
        <CharString name="uni05B9">
          64 570 30 callgsubr
          endchar
        </CharString>
        <CharString name="uni05BA">
          64 509 rmoveto
          17 11 15 16 15 20 callsubr
          -17 -12 -15 -15 -16 12 -15 17 hvcurveto
          endchar
        </CharString>
        <CharString name="uni05BB">
          64 -74 callgsubr
          65 -58 rmoveto
          -17 -12 -15 -15 -14 callsubr
          15 -17 hvcurveto
          65 -59 -80 callsubr
          endchar
        </CharString>
        <CharString name="uni05BC">
          64 321 -99 callgsubr
        </CharString>
        <CharString name="uni05BE">
          -151 45 504 rmoveto
          221 46 -221 -46 hlineto
          endchar
        </CharString>
        <CharString name="uni05BF">
          221 569 rmoveto
          -189 -34 189 34 hlineto
          endchar
        </CharString>
        <CharString name="uni05C1">
          17 callgsubr
        </CharString>
        <CharString name="uni05C2">
          17 callgsubr
        </CharString>
        <CharString name="uni05C7">
          127 -69 rmoveto
          -92 -34 39 hlineto
          -12 52 callsubr
          -12 100 rlineto
          40 34 hlineto
          endchar
        </CharString>
        <CharString name="uni05D0">
          -86 callsubr
          endchar
        </CharString>
        <CharString name="uni05D1">
          -2 callsubr
          endchar
        </CharString>
        <CharString name="uni05D2">
          -30 callgsubr
          endchar
        </CharString>
        <CharString name="uni05D3">
          5 callsubr
          endchar
        </CharString>
        <CharString name="uni05D4">
          -15 callgsubr
          endchar
        </CharString>
        <CharString name="uni05D5">
          -249 84 hmoveto
          2 callsubr
          endchar
        </CharString>
        <CharString name="uni05D6">
          6 callgsubr
          endchar
        </CharString>
        <CharString name="uni05D7">
          91 312 550 rmoveto
          -245 -550 55 504 181 hlineto
          80 41 -53 -102 hvcurveto
          -349 55 347 vlineto
          136 -60 67 -107 vhcurveto
          endchar
        </CharString>
        <CharString name="uni05D8">
          -38 callgsubr
          endchar
        </CharString>
        <CharString name="uni05D9">
          11 callgsubr
          endchar
        </CharString>
        <CharString name="uni05DA">
          6 callsubr
          endchar
        </CharString>
        <CharString name="uni05DB">
          -24 callsubr
          endchar
        </CharString>
        <CharString name="uni05DC">
          8 callsubr
          endchar
        </CharString>
        <CharString name="uni05DD">
          114 336 550 rmoveto
          -254 -550 420 364 35 callsubr
          -504 rmoveto
          458 189 vlineto
          73 31 callsubr
          -320 -311 vlineto
          endchar
        </CharString>
        <CharString name="uni05DE">
          -50 callsubr
          endchar
        </CharString>
        <CharString name="uni05DF">
          -249 84 -200 rmoveto
          54 633 hlineto
          -13 callgsubr
          -633 vlineto
          endchar
        </CharString>
        <CharString name="uni05E0">
          1 callgsubr
          endchar
        </CharString>
        <CharString name="uni05E1">
          -41 callgsubr
          endchar
        </CharString>
        <CharString name="uni05E2">
          58 410 550 rmoveto
          -298 -7 -116 -134 -61 vhcurveto
          -128 475 rlineto
          -55 hlineto
          135 -493 -8 -3 -8 -2 -8 -2 rlinecurve
          -159 -32 7 -43 152 30 rlineto
          245 59 22 120 366 vvcurveto
          -54 hlineto
          endchar
        </CharString>
        <CharString name="uni05E3">
          -31 callsubr
          endchar
        </CharString>
        <CharString name="uni05E4">
          -48 callgsubr
          endchar
        </CharString>
        <CharString name="uni05E5">
          -19 419 550 rmoveto
          -53 hlineto
          -140 -361 -121 361 rlineto
          -55 hlineto
          251 -750 rlineto
          55 hlineto
          -107 320 170 430 rlineto
          endchar
        </CharString>
        <CharString name="uni05E6">
          -10 callgsubr
          endchar
        </CharString>
        <CharString name="uni05E7">
          -33 callgsubr
          endchar
        </CharString>
        <CharString name="uni05E8">
          10 callsubr
          endchar
        </CharString>
        <CharString name="uni05E9">
          -50 callgsubr
          endchar
        </CharString>
        <CharString name="uni05EA">
          -23 callgsubr
          endchar
        </CharString>
        <CharString name="uni1E06">
          -58 callsubr
          22 -206 -59 callgsubr
        </CharString>
        <CharString name="uni1E07">
          -49 callgsubr
          -126 -195 -59 callgsubr
        </CharString>
        <CharString name="uni1E0C">
          -66 callsubr
          152 -242 -98 callsubr
        </CharString>
        <CharString name="uni1E0D">
          -85 callsubr
          34 -230 -98 callsubr
        </CharString>
        <CharString name="uni1E0E">
          -66 callsubr
          27 -207 -59 callgsubr
        </CharString>
        <CharString name="uni1E0F">
          -85 callsubr
          -91 -195 -59 callgsubr
        </CharString>
        <CharString name="uni1E20">
          145 221 -14 callgsubr
          119 -753 -93 callgsubr
        </CharString>
        <CharString name="uni1E21">
          28 128 0 callgsubr
          120 -835 -104 callgsubr
        </CharString>
        <CharString name="uni1E24">
          -23 callsubr
          224 -88 callgsubr
        </CharString>
        <CharString name="uni1E25">
          -77 callgsubr
          193 -88 callgsubr
        </CharString>
        <CharString name="uni1E2A">
          -23 callsubr
          224 -231 rmoveto
          2 callgsubr
        </CharString>
        <CharString name="uni1E2B">
          -77 callgsubr
          193 -231 rmoveto
          2 callgsubr
        </CharString>
        <CharString name="uni1E32">
          -55 callsubr
          230 -88 callgsubr
        </CharString>
        <CharString name="uni1E33">
          -52 callsubr
          170 -88 callgsubr
        </CharString>
        <CharString name="uni1E34">
          -55 callsubr
          105 -34 callsubr
        </CharString>
        <CharString name="uni1E35">
          -52 callsubr
          45 -34 callsubr
        </CharString>
        <CharString name="uni1E62">
          61 270 -12 -96 callgsubr
          -185 vmoveto
          -100 callgsubr
        </CharString>
        <CharString name="uni1E63">
          -54 209 -12 -95 callgsubr
          9 -185 -98 callsubr
        </CharString>
        <CharString name="uni1E6C">
          -1 callsubr
          26 -88 callgsubr
        </CharString>
        <CharString name="uni1E6D">
          -67 callsubr
          -26 -185 -98 callsubr
        </CharString>
        <CharString name="uni1E6E">
          -1 callsubr
          -99 -34 callsubr
        </CharString>
        <CharString name="uni1E6F">
          -67 callsubr
          -151 -150 -59 callgsubr
        </CharString>
        <CharString name="uni1E7E">
          -18 callgsubr
          30 -88 callgsubr
        </CharString>
        <CharString name="uni1E7F">
          -8 callsubr
          30 -88 callgsubr
        </CharString>
        <CharString name="uni1E92">
          -30 callsubr
          233 -88 callgsubr
        </CharString>
        <CharString name="uni1E93">
          -29 callgsubr
          191 -88 callgsubr
        </CharString>
        <CharString name="uni1E94">
          -30 callsubr
          108 -34 callsubr
        </CharString>
        <CharString name="uni1E95">
          -29 callgsubr
          66 -34 callsubr
        </CharString>
        <CharString name="uni1E96">
          -77 callgsubr
          68 -34 callsubr
        </CharString>
        <CharString name="uni1EA0">
          68 523 hmoveto
          -95 callsubr
          57 hlineto
          -372 -97 callsubr
          113 -376 -27 callgsubr
          endchar
        </CharString>
        <CharString name="uni1EA1">
          32 197 -12 -107 callgsubr
          38 -229 -98 callsubr
        </CharString>
        <CharString name="uni1EB8">
          55 96 hmoveto
          -84 callgsubr
          194 -88 callgsubr
        </CharString>
        <CharString name="uni1EB9">
          23 448 270 -106 callsubr
          149 -384 -27 callgsubr
          endchar
        </CharString>
        <CharString name="uni1ECC">
          193 327 -12 rmoveto
          -106 callgsubr
          -233 vmoveto
          -100 callgsubr
        </CharString>
        <CharString name="uni1ECD">
          74 268 -12 rmoveto
          -102 callgsubr
          -230 vmoveto
          -100 callgsubr
        </CharString>
        <CharString name="uni200E">
          37 callsubr
          -191 -36 191 hlineto
          -63 -66 25 -25 rlineto
          endchar
        </CharString>
        <CharString name="uni200F">
          48 callsubr
          192 36 -193 44 callgsubr
          endchar
        </CharString>
        <CharString name="uni2010">
          -7 callsubr
        </CharString>
        <CharString name="uni2010.lat">
          -7 callsubr
        </CharString>
        <CharString name="uni202D">
          -31 767 rmoveto
          104 108 -104 109 -26 -27 61 -63 rlineto
          -160 -36 162 hlineto
          -63 -66 26 -25 rlineto
          97 hmoveto
          40 callgsubr
          82 -82 -82 -83 25 -25 rlineto
          endchar
        </CharString>
        <CharString name="uni202E">
          -66 805 rmoveto
          25 26 -80 83 80 81 -25 26 -105 -107 105 -109 rlineto
          97 hmoveto
          28 26 -63 64 rlineto
          161 34 -161 hlineto
          63 66 -28 26 -102 -107 102 -109 rlineto
          endchar
        </CharString>
        <CharString name="uni210A">
          86 258 -227 rmoveto
          126 72 74 115 hvcurveto
          519 -44 vlineto
          -5 -44 rlineto
          -3 hlineto
          35 -42 -40 21 -57 hhcurveto
          -114 -99 -95 -152 -157 78 -88 121 62 54 34 39 39 hvcurveto
          -1 -106 rlineto
          -94 -1 -49 -58 -97 hhcurveto
          -49 -51 14 35 -47 hvcurveto
          -22 -39 rlineto
          -33 48 58 -20 63 hhcurveto
          1 272 rmoveto
          -98 -56 81 121 115 71 86 93 46 41 -16 -43 49 hvcurveto
          -267 vlineto
          -50 -49 -45 -27 -52 hhcurveto
          endchar
        </CharString>
        <CharString name="uni2215">
          -53 callsubr
        </CharString>
        <CharString name="uni2215.lat">
          -53 callsubr
        </CharString>
        <CharString name="uni2219">
          27 240 275 -67 callgsubr
        </CharString>
        <CharString name="uniFB2A">
          -62 callgsubr
          endchar
        </CharString>
        <CharString name="uniFB2B">
          -64 callsubr
          endchar
        </CharString>
        <CharString name="uniFB2C">
          -62 callgsubr
          -182 -292 -29 callsubr
        </CharString>
        <CharString name="uniFB2D">
          -64 callsubr
          -183 -156 -29 callsubr
        </CharString>
        <CharString name="uniFB2E">
          -38 callsubr
          156 34 hlineto
          endchar
        </CharString>
        <CharString name="uniFB2F">
          -38 callsubr
          67 hlineto
          -8 52 callsubr
          -7 100 rlineto
          67 34 hlineto
          endchar
        </CharString>
        <CharString name="uniFB30">
          -86 callsubr
          -263 159 -99 callgsubr
        </CharString>
        <CharString name="uniFB31">
          -2 callsubr
          -189 252 -3 callsubr
        </CharString>
        <CharString name="uniFB32">
          -30 callgsubr
          -213 267 -29 callsubr
        </CharString>
        <CharString name="uniFB33">
          5 callsubr
          -135 -74 callsubr
        </CharString>
        <CharString name="uniFB34">
          -15 callgsubr
          206 -74 callsubr
        </CharString>
        <CharString name="uniFB35">
          -249 84 hmoveto
          2 callsubr
          -85 -74 callsubr
        </CharString>
        <CharString name="uniFB36">
          6 callgsubr
          -81 -74 callsubr
        </CharString>
        <CharString name="uniFB38">
          -38 callgsubr
          159 341 -99 callgsubr
        </CharString>
        <CharString name="uniFB39">
          11 callgsubr
          -76 208 -99 callgsubr
        </CharString>
        <CharString name="uniFB3A">
          6 callsubr
          -180 528 -99 callgsubr
        </CharString>
        <CharString name="uniFB3B">
          -24 callsubr
          137 -74 callsubr
        </CharString>
        <CharString name="uniFB3C">
          8 callsubr
          35 -222 -99 callgsubr
        </CharString>
        <CharString name="uniFB3E">
          -50 callsubr
          -185 -1 -3 callsubr
        </CharString>
        <CharString name="uniFB40">
          1 callgsubr
          54 -74 callsubr
        </CharString>
        <CharString name="uniFB41">
          -41 callgsubr
          108 287 -99 callgsubr
        </CharString>
        <CharString name="uniFB43">
          -31 callsubr
          18 -222 -99 callgsubr
        </CharString>
        <CharString name="uniFB44">
          -48 callgsubr
          202 326 -99 callgsubr
        </CharString>
        <CharString name="uniFB46">
          -10 callgsubr
          -123 -71 -3 callsubr
        </CharString>
        <CharString name="uniFB47">
          -33 callgsubr
          207 531 -99 callgsubr
        </CharString>
        <CharString name="uniFB48">
          10 callsubr
          -175 -74 callsubr
        </CharString>
        <CharString name="uniFB49">
          -50 callgsubr
          -183 -156 -29 callsubr
        </CharString>
        <CharString name="uniFB4A">
          -23 callgsubr
          294 341 -99 callgsubr
        </CharString>
        <CharString name="uniFB4B">
          -249 85 674 30 callgsubr
          -1 -674 rmoveto
          2 callsubr
          endchar
        </CharString>
        <CharString name="upsilonlatin">
          71 266 -12 rmoveto
          136 78 108 117 108 -49 73 -44 41 hvcurveto
          2 105 44 -172 -33 vlineto
          61 -45 46 -73 -106 vvcurveto
          -101 -56 -90 -105 -104 -56 90 101 106 46 73 60 45 vhcurveto
          33 -171 -44 105 -2 vlineto
          -44 -41 -49 -73 -108 vvcurveto
          -117 78 -108 135 vhcurveto
          endchar
        </CharString>
        <CharString name="v">
          -8 callsubr
          endchar
        </CharString>
        <CharString name="w">
          229 164 hmoveto
          62 hlineto
          80 290 15 46 11 46 11 47 rlinecurve
          4 hlineto
          13 -47 10 -45 13 -46 82 -291 rcurveline
          66 hlineto
          136 481 rlineto
          -51 hlineto
          -82 -305 -12 -45 -10 -41 -12 -44 29 callsubr
          -35 130 -85 305 rlineto
          -58 hlineto
          -85 -305 -35 -130 27 callsubr
          -9 44 -11 41 -12 45 -84 305 rcurveline
          -54 hlineto
          140 -481 rlineto
          endchar
        </CharString>
        <CharString name="x">
          -48 14 hmoveto
          54 hlineto
          79 128 19 30 17 30 18 27 rlinecurve
          4 hlineto
          20 -27 19 -30 17 -30 83 -128 rcurveline
          56 hlineto
          -162 247 149 234 46 callgsubr
          -71 -119 -17 -26 -15 -27 -17 -26 29 callsubr
          -17 26 -18 27 -15 26 -75 119 rcurveline
          -57 hlineto
          149 -230 -162 -251 rlineto
          endchar
        </CharString>
        <CharString name="y">
          -20 76 -217 -80 callgsubr
        </CharString>
        <CharString name="yacute">
          -20 206 -65 callgsubr
          -130 -791 -80 callgsubr
        </CharString>
        <CharString name="ydieresis">
          -20 141 -98 callgsubr
          -246 -813 -80 callgsubr
        </CharString>
        <CharString name="yen">
          -42 callgsubr
        </CharString>
        <CharString name="yen.heb">
          78 endchar
        </CharString>
        <CharString name="yen.lat">
          -42 callgsubr
        </CharString>
        <CharString name="z">
          -29 callgsubr
          endchar
        </CharString>
        <CharString name="zcaron">
          -54 198 -83 callsubr
          -170 -573 rmoveto
          -43 callgsubr
          endchar
        </CharString>
        <CharString name="zero">
          -73 callsubr
        </CharString>
        <CharString name="zero.heb">
          -73 callsubr
        </CharString>
        <CharString name="zero.lat">
          -73 callsubr
        </CharString>
        <CharString name="zero.pnumheb">
          47 endchar
        </CharString>
        <CharString name="zero.pnumlat">
          41 endchar
        </CharString>
        <CharString name="zero.slash">
          38 endchar
        </CharString>
        <CharString name="zero.slashpnum">
          38 endchar
        </CharString>
      <CharString index="0">
        rmoveto
        62 58 34 40 48 hvcurveto
        3 hlineto
        5 -62 rlineto
        43 305 hlineto
        106 -41 82 -114 -78 -67 -37 -25 -36 vhcurveto
        22 -38 rlineto
        25 34 55 31 63 hhcurveto
        92 20 -75 -72 -1 hvcurveto
        -213 -23 -95 -52 -106 vvcurveto
        -90 63 -43 77 vhcurveto
        10 44 rmoveto
        -54 -45 25 67 74 65 44 191 27 callgsubr
        vlineto
        -49 -57 -47 -25 -53 hhcurveto
        return
      </CharString>
      <CharString index="1">
        -31 callgsubr
        -77 callsubr
        -209 114 -134 159 hvcurveto
        48 vmoveto
        -131 -87 116 179 -70 callsubr
        -179 -88 -116 -130 hvcurveto
        return
      </CharString>
      <CharString index="2">
        57 hlineto
        -95 callsubr
        -315 -97 callsubr
        endchar
      </CharString>
      <CharString index="3">
        rmoveto
        141 90 79 85 76 -52 35 -109 hvcurveto
        -101 hlineto
        -71 -20 27 33 31 18 20 20 17 hvcurveto
        -13 22 30 -7 26 hhcurveto
        95 75 70 99 49 -21 42 -30 26 hvcurveto
        110 42 -164 hlineto
        7 -16 -23 5 -26 hhcurveto
        -95 -76 -70 -100 -58 30 -48 31 -25 hvcurveto
        -4 vlineto
        -22 -16 -31 -31 -42 vvcurveto
        -37 18 -26 25 -15 vhcurveto
        -4 vlineto
        -45 -30 -27 -42 -42 vvcurveto
        -82 77 -51 121 vhcurveto
        -6 422 rmoveto
        -64 -56 53 78 80 54 49 66 66 55 -50 -79 -78 -56 -53 -65 hvcurveto
        13 -382 rmoveto
        -99 -57 39 60 32 18 36 42 29 hvcurveto
        -6 25 24 -2 12 hhcurveto
        99 hlineto
        71 38 -19 -52 -58 -68 -59 -105 hvcurveto
        endchar
      </CharString>
      <CharString index="4">
        rmoveto
        -105 callgsubr
      </CharString>
      <CharString index="5">
        116 102 93 159 161 -102 92 -116 -116 -101 10 callgsubr
        101 -93 116 hvcurveto
        45 vmoveto
        -95 -69 -5 callgsubr
        69 86 95 94 70 -86 -123 -124 -70 -83 -94 hvcurveto
        return
      </CharString>
      <CharString index="6">
        -102 callgsubr
        endchar
      </CharString>
      <CharString index="7">
        -101 callsubr
        endchar
      </CharString>
      <CharString index="8">
        rmoveto
        -92 callgsubr
        15 -5 callsubr
        endchar
      </CharString>
      <CharString index="9">
        596 rmoveto
        23 17 17 22 22 -17 -82 callsubr
        181 hmoveto
        23 16 17 22 22 -16 -82 callsubr
        return
      </CharString>
      <CharString index="10">
        20 232 -12 rmoveto
        111 87 69 112 90 -65 59 -79 17 hvcurveto
        3 vlineto
        70 25 51 50 82 vvcurveto
        99 -77 57 -100 -75 -56 -35 -44 -45 vhcurveto
        30 -34 rlineto
        39 37 50 30 57 hhcurveto
        77 49 -45 -71 -74 -51 -61 -145 hvcurveto
        -43 vlineto
        158 61 -59 -85 -82 -61 -54 -85 -85 -51 39 41 -38 hvcurveto
        -29 -35 rlineto
        -44 41 61 -46 102 hhcurveto
        endchar
      </CharString>
      <CharString index="11">
        rmoveto
        130 83 78 101 100 -64 42 -74 33 hvcurveto
        -99 43 rlineto
        -48 22 -64 28 74 vvcurveto
        69 56 45 85 65 51 -26 -41 39 vhcurveto
        30 35 rlineto
        44 -41 -65 36 -79 hhcurveto
        -112 -83 -69 -96 -97 76 -43 58 -25 hvcurveto
        99 -44 rlineto
        64 -29 52 -25 -80 vvcurveto
        -75 -61 -52 -97 -76 -68 34 53 -48 vhcurveto
        -33 -36 rlineto
        -59 53 75 -40 96 hhcurveto
        return
      </CharString>
      <CharString index="12">
        rmoveto
        106 59 63 74 94 -82 25 -73 28 hvcurveto
        -57 21 -56 20 53 vvcurveto
        43 33 42 72 47 34 -20 -24 33 vhcurveto
        27 36 rlineto
        28 -36 -51 22 -53 hhcurveto
        -101 -56 -59 -70 -82 80 -31 71 -25 hvcurveto
        55 -20 61 -26 -58 vvcurveto
        -49 -37 -42 -74 -66 -44 26 34 -41 vhcurveto
        -28 -36 rlineto
        -37 44 62 -30 71 hhcurveto
        return
      </CharString>
      <CharString index="13">
        -57 callgsubr
        -69 callsubr
        return
      </CharString>
      <CharString index="14">
        rmoveto
        86 69 31 44 41 hvcurveto
        264 -204 -45 154 -199 vlineto
        -30 -31 -54 -17 -57 hhcurveto
        -148 -87 115 180 179 92 113 147 71 46 -30 -37 33 hvcurveto
        31 35 rlineto
        38 -36 -56 42 -90 hhcurveto
        -174 -119 -26 callgsubr
        171 hvcurveto
        endchar
      </CharString>
      <CharString index="15">
        -17 -12 -16 -14 50 callgsubr
        return
      </CharString>
      <CharString index="16">
        103 40 82 66 7 hvcurveto
        -36 6 rlineto
        -55 -8 -35 -61 -71 hhcurveto
        -71 -35 61 55 -8 hvcurveto
        -36 -6 rlineto
        -66 7 39 -82 104 hhcurveto
        return
      </CharString>
      <CharString index="17">
        rmoveto
        117 108 62 206 hvcurveto
        402 -50 -398 vlineto
        -172 -81 -52 -94 -92 -79 52 172 vhcurveto
        398 -53 -402 vlineto
        -206 107 -62 117 vhcurveto
        endchar
      </CharString>
      <CharString index="18">
        32 callgsubr
        29 31 -42 callsubr
        -31 -29 22 -19 24 hvcurveto
        return
      </CharString>
      <CharString index="19">
        -197 -98 callsubr
      </CharString>
      <CharString index="20">
        20 220 651 rmoveto
        -97 -81 -83 -118 -129 67 -68 111 58 58 34 53 44 hvcurveto
        -229 -2 -85 -78 -99 hhcurveto
        -42 -39 18 34 -27 hvcurveto
        -31 -34 rlineto
        -37 33 45 -26 61 hhcurveto
        124 112 95 265 196 -83 107 -127 hvcurveto
        7 -357 rmoveto
        -94 -40 66 90 90 54 68 71 100 52 -85 -134 9 hvcurveto
        -69 -50 -57 -26 -45 hhcurveto
        endchar
      </CharString>
      <CharString index="21">
        358 390 -147 rmoveto
        69 62 17 35 57 hvcurveto
        -17 35 rlineto
        -29 -47 -55 -19 -65 hhcurveto
        -177 -123 118 195 237 173 154 181 175 104 -113 -170 -139 -78 -80 -63 -60 -21 43 89 22 hvcurveto
        36 190 rlineto
        -38 hlineto
        -9 -40 rlineto
        -2 hlineto
        32 -19 -28 16 -35 hhcurveto
        -118 -70 -127 -99 -90 53 -47 63 45 42 31 38 35 hvcurveto
        2 hlineto
        -51 5 39 -25 54 hhcurveto
        84 102 91 170 192 -121 129 -195 -213 -188 -172 -261 -224 145 -126 194 hvcurveto
        -23 248 rmoveto
        -43 -35 27 73 83 54 100 88 30 19 -12 -36 23 hvcurveto
        -30 -170 rlineto
        -45 -39 -35 -20 -32 hhcurveto
        endchar
      </CharString>
      <CharString index="22">
        -39 callsubr
        -25 callsubr
        return
      </CharString>
      <CharString index="23">
        374 -83 callgsubr
        hlineto
        return
      </CharString>
      <CharString index="24">
        45 -321 281 261 46 -261 241 311 45 -364 -658 return
      </CharString>
      <CharString index="25">
        51 360 hlineto
        -32 callsubr
        -301 51 308 vlineto
        124 -46 61 -100 -66 -50 -37 return
      </CharString>
      <CharString index="26">
        119 568 33 rmoveto
        -38 13 -44 24 -44 36 52 68 38 84 26 89 rrcurveto
        -49 hlineto
        -22 -82 -34 -73 -46 -58 -67 59 -68 78 -45 80 rrcurveto
        75 56 77 56 86 vvcurveto
        70 -41 52 -74 -82 -56 -64 -85 -50 17 -55 27 -56 vhcurveto
        -69 -50 -65 -57 -87 vvcurveto
        -108 84 -71 108 75 58 33 49 49 vhcurveto
        51 -41 49 -27 42 -14 16 45 rcurveline
        -396 490 rmoveto
        59 34 48 57 52 19 -41 -42 -66 -60 -46 -66 -47 vhcurveto
        -23 47 -13 46 42 vvcurveto
        -84 -352 rmoveto
        62 46 47 56 43 vhcurveto
        47 -82 68 -80 70 -62 rrcurveto
        -40 -41 -48 -28 -53 hhcurveto
        -80 -65 56 84 hvcurveto
        endchar
      </CharString>
      <CharString index="27">
        rmoveto
        88 49 77 83 28 hvcurveto
        189 538 rlineto
        -52 hlineto
        -99 -295 -14 -42 -15 -51 -15 -43 29 callsubr
        -17 44 -19 51 -16 41 -112 295 rcurveline
        -55 hlineto
        197 -488 -13 -41 rlineto
        -71 -24 -39 -52 -57 hhcurveto
        -14 -15 4 3 -10 hvcurveto
        -12 -43 rlineto
        -6 14 18 -4 19 hhcurveto
        endchar
      </CharString>
      <CharString index="28">
        141 -70 82 -116 -108 -103 -96 -157 -158 100 -94 124 return
      </CharString>
      <CharString index="29">
        -84 callgsubr
        endchar
      </CharString>
      <CharString index="30">
        69 90 hmoveto
        -82 callgsubr
        -49 -49 vhcurveto
        1 105 rlineto
        206 -51 -718 vlineto
        return
      </CharString>
      <CharString index="31">
        20 41 hmoveto
        395 45 -211 hlineto
        -35 -37 -2 -2 -36 hvcurveto
        173 182 115 122 125 vvcurveto
        109 -68 72 -115 -78 -57 -40 -55 -49 vhcurveto
        33 -31 rlineto
        47 38 51 35 57 hhcurveto
        94 42 -60 -78 -110 -106 -118 -206 -209 hvcurveto
        -32 vlineto
        endchar
      </CharString>
      <CharString index="32">
        rmoveto
        85 61 35 59 51 hvcurveto
        -31 34 rlineto
        -53 -47 -50 -27 -67 hhcurveto
        -138 -87 115 180 179 88 113 141 59 48 -27 -40 35 hvcurveto
        30 35 rlineto
        41 -35 -60 39 -78 hhcurveto
        -167 -116 -26 callgsubr
        163 hvcurveto
        endchar
      </CharString>
      <CharString index="33">
        -76 -80 callsubr
        return
      </CharString>
      <CharString index="34">
        4 hlineto
        114 -123 25 22 -116 143 rlineto
        -50 hlineto
        -117 -143 25 -22 return
      </CharString>
      <CharString index="35">
        572 rmoveto
        -76 callsubr
        return
      </CharString>
      <CharString index="36">
        rmoveto
        -78 callgsubr
      </CharString>
      <CharString index="37">
        138 160 rlineto
        42 vlineto
        -138 160 -26 -23 122 -158 -122 -160 26 -21 rlineto
        return
      </CharString>
      <CharString index="38">
        rmoveto
        250 40 -250 -40 hlineto
        return
      </CharString>
      <CharString index="39">
        20 452 231 rmoveto
        -93 408 -50 hlineto
        -292 -420 rlineto
        -31 292 -188 50 188 93 43 vlineto
        -375 hmoveto
        180 256 18 30 18 24 16 28 rlinecurve
        4 hlineto
        -2 -30 -2 -53 -30 vvcurveto
        -225 -232 vlineto
        endchar
      </CharString>
      <CharString index="40">
        rmoveto
        28 callsubr
      </CharString>
      <CharString index="41">
        708 rmoveto
        52 hlineto
        111 114 -23 20 -112 -97 27 callsubr
        -112 97 -23 -20 111 -114 rlineto
        return
      </CharString>
      <CharString index="42">
        574 rmoveto
        146 151 -26 callsubr
        rlineto
        return
      </CharString>
      <CharString index="43">
        rmoveto
        -99 -55 81 126 119 71 89 93 45 42 -16 -43 48 hvcurveto
        -279 vlineto
        -50 -48 -46 -27 -51 hhcurveto
        return
      </CharString>
      <CharString index="44">
        -57 202 323 rmoveto
        100 84 78 116 116 -84 80 -100 -100 -83 -80 -116 -116 83 -78 100 hvcurveto
        30 vmoveto
        -83 -67 69 95 95 67 70 83 84 67 -70 -95 -95 -67 -69 -84 hvcurveto
        -68 65 rmoveto
        33 74 47 hlineto
        38 -74 rlineto
        39 hlineto
        -49 86 rlineto
        22 6 17 24 25 vvcurveto
        49 -37 16 -40 vhcurveto
        -70 -206 hlineto
        33 103 rmoveto
        73 32 vlineto
        34 12 -15 -22 -26 -20 -10 -30 hvcurveto
        -28 hlineto
        endchar
      </CharString>
      <CharString index="45">
        157 530 -32 callgsubr
        23 -72 rmoveto
        -100 callsubr
        -1 136 rlineto
        return
      </CharString>
      <CharString index="46">
        20 372 626 rmoveto
        28 18 -8 -7 15 hvcurveto
        13 41 rlineto
        9 -18 -24 10 -32 hhcurveto
        -94 -42 -77 -126 -14 hvcurveto
        -7 -62 rlineto
        -31 hlineto
        -67 -5 rlineto
        -38 94 vlineto
        -28 -254 -10 -95 -26 -67 -69 -1 rlinecurve
        -20 -17 4 8 -16 hvcurveto
        -13 -40 rlineto
        -10 17 23 -6 26 hhcurveto
        100 41 78 123 13 hvcurveto
        28 260 rlineto
        141 43 -136 hlineto
        7 65 rlineto
        79 9 24 76 67 hhcurveto
        endchar
      </CharString>
      <CharString index="47">
        20 439 142 rmoveto
        -25 33 -32 -28 -41 -22 -47 -2 rlinecurve
        377 vlineto
        43 -2 35 -19 29 -27 27 33 rcurveline
        -31 29 -42 28 -61 2 rrcurveto
        109 -38 -111 vlineto
        -107 -13 -87 -80 -138 vvcurveto
        -138 80 -82 114 -12 vhcurveto
        -108 38 107 vlineto
        56 3 50 25 39 36 rrcurveto
        -325 169 rmoveto
        100 58 71 84 15 vhcurveto
        -372 vlineto
        -87 14 -55 71 101 vvcurveto
        endchar
      </CharString>
      <CharString index="48">
        -69 callgsubr
        endchar
      </CharString>
      <CharString index="49">
        705 rmoveto
        136 113 -17 callsubr
        rlineto
        return
      </CharString>
      <CharString index="50">
        26 24 -18 18 -23 return
      </CharString>
      <CharString index="51">
        -178 23 49 callsubr
        36 hlineto
        75 37 28 101 hvcurveto
        73 -9 61 69 vvcurveto
        41 17 39 69 vhcurveto
        36 vlineto
        -69 -17 39 39 hvcurveto
        71 9 61 73 vvcurveto
        102 -37 27 -75 vhcurveto
        -36 -32 30 hlineto
        60 15 -32 -69 hvcurveto
        -64 -6 -55 -71 vvcurveto
        -60 13 -33 40 -12 vhcurveto
        -4 vlineto
        -40 -12 -13 -35 -58 -71 6 -55 -64 vvcurveto
        -69 -15 -32 -60 vhcurveto
        -30 -32 hlineto
        endchar
      </CharString>
      <CharString index="52">
        20 422 155 rmoveto
        226 -286 -55 169 vvcurveto
        64 45 48 68 60 30 -23 -37 38 vhcurveto
        29 31 -35 37 -39 30 -64 5 rlinecurve
        99 -42 -99 vlineto
        -83 -10 -59 -63 -85 -201 287 51 -191 vvcurveto
        -70 -44 -48 -82 -68 -54 34 35 -39 vhcurveto
        -26 -36 39 -37 61 -35 68 -5 rlinecurve
        -99 42 99 vlineto
        89 9 65 62 95 vvcurveto
        endchar
      </CharString>
      <CharString index="53">
        717 rmoveto
        -63 callsubr
        54 22 -77 77 hhcurveto
        return
      </CharString>
      <CharString index="54">
        134 -4 rlineto
        48 vlineto
        -134 -3 3 154 rlineto
        -47 hlineto
        3 -154 -134 3 rlineto
        -48 vlineto
        134 4 -3 return
      </CharString>
      <CharString index="55">
        -25 36 rlineto
        -30 -33 -43 -24 -50 hhcurveto
        -102 -67 -5 callgsubr
        73 86 97 45 35 -22 -28 30 hvcurveto
        29 35 rlineto
        31 -33 -43 28 -65 hhcurveto
        -118 -104 -92 -161 return
      </CharString>
      <CharString index="56">
        80 71 rmoveto
        -70 callgsubr
        return
      </CharString>
      <CharString index="57">
        157 554 414 -92 callsubr
        return
      </CharString>
      <CharString index="58">
        82 283 -12 rmoveto
        13 callsubr
        -33 -41 -48 hvcurveto
        2 93 rlineto
        206 -51 -718 42 vlineto
        6 49 rlineto
        2 hlineto
        -37 45 52 -24 46 hhcurveto
        -4 45 rmoveto
        -36 -50 16 44 -51 hvcurveto
        279 vlineto
        49 54 51 -11 callgsubr
        return
      </CharString>
      <CharString index="59">
        73 83 hmoveto
        158 hlineto
        125 110 58 191 hvcurveto
        56 vlineto
        164 -1 -74 81 -124 hhcurveto
        -163 hlineto
        -38 -162 -22 -111 28 -63 109 -16 rlinecurve
        14 41 -84 16 -14 44 20 86 rlinecurve
        28 119 rlineto
        115 hlineto
        102 50 -66 -133 hvcurveto
        -58 vlineto
        -159 -86 -42 -102 vhcurveto
        -151 -46 hlineto
        return
      </CharString>
      <CharString index="60">
        -55 218 -6 callgsubr
        -11 -597 rmoveto
        70 53 35 44 39 hvcurveto
        -31 28 rlineto
        -39 -32 -46 -23 -48 hhcurveto
        -76 -34 53 60 120 164 57 -22 165 hvcurveto
        -46 hlineto
        18 -150 -166 -60 -136 vvcurveto
        -88 59 -66 98 vhcurveto
        endchar
      </CharString>
      <CharString index="61">
        -55 162 183 rmoveto
        47 hlineto
        -19 150 166 60 135 vvcurveto
        89 -59 65 -98 -69 -53 -35 -44 -40 vhcurveto
        31 -28 rlineto
        39 33 46 23 47 hhcurveto
        76 35 -53 -59 -121 -164 -57 21 -164 hvcurveto
        27 -195 -67 callgsubr
      </CharString>
      <CharString index="62">
        574 rmoveto
        28 26 -27 callsubr
        rlineto
        return
      </CharString>
      <CharString index="63">
        rmoveto
        -3 -3 0 -1 -2 hvcurveto
        56 23 33 46 34 vhcurveto
        -37 callgsubr
        vhcurveto
        endchar
      </CharString>
      <CharString index="64">
        354 44 -288 hlineto
        278 410 rlineto
        27 -313 -44 247 vlineto
        -278 -410 rlineto
        -27 vlineto
        return
      </CharString>
      <CharString index="65">
        20 214 hmoveto
        52 164 167 36 -167 70 167 36 -152 hlineto
        172 333 rlineto
        -53 hlineto
        -91 -189 -22 -44 -20 -44 -24 -49 29 callsubr
        -65 137 -91 189 rlineto
        -55 hlineto
        171 -333 rlineto
        -150 -36 165 -70 -165 -36 165 -164 hlineto
        endchar
      </CharString>
      <CharString index="66">
        89 498 319 rmoveto
        -1 29 rlineto
        121 -4 -64 81 -115 hhcurveto
        -262 hlineto
        5 -46 62 -514 204 10 184 74 -9 245 rlinecurve
        -330 -277 rmoveto
        -56 462 rlineto
        197 hlineto
        89 46 -72 -90 hvcurveto
        -23 vlineto
        8 -214 -149 -50 -135 -13 rrcurveto
        return
      </CharString>
      <CharString index="67">
        709 rmoveto
        -59 callsubr
        return
      </CharString>
      <CharString index="68">
        -159 -114 -131 -209 return
      </CharString>
      <CharString index="69">
        79 119 -10 rmoveto
        206 10 175 94 -9 244 -1 28 rcurveline
        -4 122 -67 58 -112 8 -54 4 rcurveline
        -4 -46 50 -3 rlineto
        94 -6 45 -57 -89 vvcurveto
        -23 vlineto
        8 -211 -143 -67 -136 -14 -60 508 rcurveline
        -55 hlineto
        67 -560 rlineto
        return
      </CharString>
      <CharString index="70">
        -19 27 rlineto
        -57 -37 -33 -50 -73 vvcurveto
        -46 19 -25 29 25 17 15 27 26 -21 14 -21 return
      </CharString>
      <CharString index="71">
        705 rmoveto
        24 26 -13 callsubr
        rlineto
        return
      </CharString>
      <CharString index="72">
        12 -14 53 callsubr
        14 return
      </CharString>
      <CharString index="73">
        20 83 hmoveto
        339 45 -138 594 3 callsubr
        -518 -150 -45 vlineto
        endchar
      </CharString>
      <CharString index="74">
        73 218 hmoveto
        123 7 108 78 10 205 18 217 rcurveline
        3 43 rlineto
        -422 -46 364 hlineto
        -19 -221 -13 -194 -85 -32 -93 -12 rlinecurve
        6 -45 rlineto
        -155 -200 rmoveto
        55 553 -47 hlineto
        -8 -67 rlineto
        -486 vlineto
        return
      </CharString>
      <CharString index="75">
        622 rmoveto
        4 callsubr
        4 callgsubr
        hvcurveto
        return
      </CharString>
      <CharString index="76">
        160 113 134 209 return
      </CharString>
      <CharString index="77">
        -107 307 hmoveto
        -37 202 rlineto
        192 vlineto
        92 -22 49 -79 13 vhcurveto
        -73 13 -8 -45 65 -11 rlineto
        53 -9 10 -35 -67 vvcurveto
        -191 vlineto
        -41 -89 -54 -50 -84 -32 21 -44 rcurveline
        78 27 53 50 38 81 27 -146 rcurveline
        53 hlineto
        return
      </CharString>
      <CharString index="78">
        -54 28 hmoveto
        -43 callgsubr
        return
      </CharString>
      <CharString index="79">
        -178 219 -175 rmoveto
        32 17 rlineto
        -79 127 -40 152 157 vvcurveto
        157 40 153 79 126 vhcurveto
        -32 17 rlineto
        -82 -133 -50 -144 -176 vvcurveto
        -176 50 -144 82 -133 vhcurveto
        endchar
      </CharString>
      <CharString index="80">
        rmoveto
        24 callgsubr
        25 callgsubr
        hvcurveto
        return
      </CharString>
      <CharString index="81">
        -131 -210 -210 115 -132 return
      </CharString>
      <CharString index="82">
        17 11 14 17 return
      </CharString>
      <CharString index="83">
        50 397 hlineto
        65 -4 62 -3 63 vhcurveto
        4 hlineto
        74 -132 270 -455 rlineto
        55 658 -50 -391 hlineto
        -65 4 -66 3 -65 vhcurveto
        -4 hlineto
        -74 133 -270 454 rlineto
        -55 18 callsubr
      </CharString>
      <CharString index="84">
        133 30 -13 rmoveto
        109 10 46 55 107 vvcurveto
        345 163 vlineto
        72 31 callsubr
        -366 55 364 vlineto
        20 callgsubr
        -226 -396 hlineto
        1 -76 -26 -43 -83 -7 7 -41 rcurveline
        return
      </CharString>
      <CharString index="85">
        98 582 rmoveto
        -18 callsubr
        18 20 -4 -9 19 vhcurveto
        14 callgsubr
        return
      </CharString>
      <CharString index="86">
        -197 114 183 rmoveto
        37 hlineto
        7 412 1 75 rlineto
        -53 hlineto
        1 -75 7 -412 rlineto
        19 -195 -67 callgsubr
      </CharString>
      <CharString index="87">
        -147 157 444 rmoveto
        61 56 45 74 76 -56 45 -61 -60 -56 -45 -76 -74 56 -45 60 hvcurveto
        34 vmoveto
        -46 -33 36 49 51 33 36 46 47 33 -36 -51 -49 -33 -36 -47 hvcurveto
        endchar
      </CharString>
      <CharString index="88">
        rmoveto
        -19 callsubr
      </CharString>
      <CharString index="89">
        34 220 hmoveto
        58 hlineto
        214 658 rlineto
        -53 hlineto
        -119 -379 -25 -80 -17 -61 -26 -79 29 callsubr
        -27 79 -17 61 -25 80 -119 379 rcurveline
        -56 hlineto
        216 -658 rlineto
        return
      </CharString>
      <CharString index="90">
        36 hlineto
        10 151 1 73 rlineto
        -58 hlineto
        1 -73 10 -151 rlineto
        return
      </CharString>
      <CharString index="91">
        16 -11 14 -17 hvcurveto
        return
      </CharString>
      <CharString index="92">
        75 410 hmoveto
        54 364 41 callgsubr
        -101 vhcurveto
        -234 -46 225 hlineto
        73 31 callsubr
        -366 vlineto
        -347 hmoveto
        55 336 -47 hlineto
        -8 -67 rlineto
        -269 vlineto
        return
      </CharString>
      <CharString index="93">
        741 rmoveto
        251 40 -251 -40 hlineto
        return
      </CharString>
      <CharString index="94">
        -14 117 46 callgsubr
        14 -117 rlineto
        return
      </CharString>
      <CharString index="95">
        rmoveto
        -58 244 -42 hlineto
        -175 -255 rlineto
        -23 177 -112 40 112 58 34 vlineto
        -224 hmoveto
        71 107 55 82 41 callsubr
        -4 -104 rlineto
        -85 -126 vlineto
        endchar
      </CharString>
      <CharString index="96">
        27 46 hhcurveto
        108 40 -85 -116 -128 -67 -86 -95 hvcurveto
        return
      </CharString>
      <CharString index="97">
        40 305 249 rmoveto
        135 301 rlineto
        -56 hlineto
        -109 -251 -152 251 rlineto
        -57 hlineto
        305 -504 rlineto
        -329 -46 414 hlineto
        -151 249 rlineto
        return
      </CharString>
      <CharString index="98">
        -63 133 454 rmoveto
        67 84 65 -84 29 22 -55 89 92 37 -11 32 -96 -24 -7 102 rlineto
        -36 hlineto
        -7 -103 -96 25 -11 -32 92 -37 -55 -89 29 -22 rlineto
        endchar
      </CharString>
      <CharString index="99">
        -2 -10 -4 0 -4 hhcurveto
        -12 -10 10 22 hvcurveto
        653 -51 -647 vlineto
        -56 21 -27 43 return
      </CharString>
      <CharString index="100">
        -222 154 -12 rmoveto
        45 callsubr
        hvcurveto
        -8 41 rlineto
        -8 callgsubr
        vhcurveto
        endchar
      </CharString>
      <CharString index="101">
        396 rmoveto
        32 callgsubr
        30 29 -42 callsubr
        -29 -30 22 -19 24 hvcurveto
        return
      </CharString>
      <CharString index="102">
        83 124 123 return
      </CharString>
      <CharString index="103">
        rmoveto
        -24 -22 -16 -29 -30 20 -15 25 4 3 0 1 4 hvcurveto
        -56 -32 -41 -47 -24 vhcurveto
        15 -34 rlineto
        64 33 44 59 75 vvcurveto
        47 -21 30 -33 vhcurveto
        endchar
      </CharString>
      <CharString index="104">
        20 65 289 rmoveto
        48 hlineto
        76 198 50 133 41 callsubr
        127 -331 rlineto
        48 hlineto
        -151 381 rlineto
        -51 hlineto
        -151 -381 rlineto
        endchar
      </CharString>
      <CharString index="105">
        -65 callsubr
        endchar
      </CharString>
      <CharString index="106">
        189 248 rmoveto
        -36 -49 16 44 -52 hvcurveto
        279 vlineto
        49 56 49 34 callgsubr
      </CharString>
      <CharString index="107">
        605 -69 callgsubr
        return
      </CharString>
      <CharString index="108">
        -99 52 hmoveto
        237 394 hlineto
        92 -44 49 -79 13 vhcurveto
        -74 13 -9 -45 67 -11 rlineto
        53 -9 32 -30 -72 vvcurveto
        -348 -183 -46 vlineto
        return
      </CharString>
      <CharString index="109">
        -91 callgsubr
        endchar
      </CharString>
      <CharString index="110">
        15 20 callsubr
        -85 callgsubr
        return
      </CharString>
      <CharString index="111">
        -39 callsubr
        -16 12 -16 17 return
      </CharString>
      <CharString index="112">
        414 42 -414 -42 hlineto
        return
      </CharString>
      <CharString index="113">
        -93 146 9 callsubr
        83 46 -251 -46 115 hlineto
        -18 -27 -10 -41 -49 vvcurveto
        -387 vlineto
        return
      </CharString>
      <CharString index="114">
        569 rmoveto
        95 162 -39 21 -87 -168 31 -15 rlineto
        137 hmoveto
        94 162 -39 21 -86 -168 31 -15 rlineto
        endchar
      </CharString>
      <CharString index="115">
        42 hlineto
        366 683 rlineto
        -41 hlineto
        return
      </CharString>
      <CharString index="116">
        hlineto
        25 192 rlineto
        -38 hlineto
        -25 -192 rlineto
        return
      </CharString>
      <CharString index="117">
        -92 -161 -159 return
      </CharString>
      <CharString index="118">
        -249 84 210 rmoveto
        53 13 1 63 rlineto
        147 vlineto
        -13 callgsubr
        -223 vlineto
        return
      </CharString>
      <CharString index="119">
        -70 callgsubr
        endchar
      </CharString>
      <CharString index="120">
        -177 143 152 rmoveto
        52 50 43 69 68 -50 44 -52 -53 -50 -44 -68 -69 50 -43 53 hvcurveto
        endchar
      </CharString>
      <CharString index="121">
        13 41 rlineto
        10 -22 -26 6 -24 hhcurveto
        -80 -43 -52 -96 hvcurveto
        return
      </CharString>
      <CharString index="122">
        -481 hlineto
        endchar
      </CharString>
      <CharString index="123">
        47 callsubr
        366 -79 callsubr
        return
      </CharString>
      <CharString index="124">
        64 584 rmoveto
        4 callgsubr
        4 callsubr
        hvcurveto
        endchar
      </CharString>
      <CharString index="125">
        -178 98 49 callsubr
        163 32 -123 796 123 32 -163 -860 hlineto
        endchar
      </CharString>
      <CharString index="126">
        -106 305 -160 rmoveto
        42 hlineto
        -298 870 rlineto
        -42 hlineto
        298 -870 rlineto
        endchar
      </CharString>
      <CharString index="127">
        136 -67 50 -100 vhcurveto
        return
      </CharString>
      <CharString index="128">
        -60 -39 61 111 110 39 59 60 60 40 -59 -110 -111 -40 -61 -60 hvcurveto
        return
      </CharString>
      <CharString index="129">
        53 658 22 callsubr
      </CharString>
      <CharString index="130">
        -19 6 -21 hhcurveto
        -86 -36 -50 -95 hvcurveto
        -667 vlineto
        24 callsubr
        return
      </CharString>
      <CharString index="131">
        -69 callsubr
        -18 23 return
      </CharString>
      <CharString index="132">
        23 18 18 -57 callgsubr
        return
      </CharString>
      <CharString index="133">
        53 326 344 -326 53 return
      </CharString>
      <CharString index="134">
        22 hvcurveto
        -158 return
      </CharString>
      <CharString index="135">
        36 callsubr
        24 -6 24 hhcurveto
        return
      </CharString>
      <CharString index="136">
        -3 hlineto
        -5 73 rlineto
        -43 15 callgsubr
      </CharString>
      <CharString index="137">
        rmoveto
        -17 -12 -15 -15 50 callgsubr
        -16 callgsubr
        return
      </CharString>
      <CharString index="138">
        -161 -10 -254 rrcurveto
        endchar
      </CharString>
      <CharString index="139">
        24 21 19 return
      </CharString>
      <CharString index="140">
        671 rmoveto
        -367 43 callgsubr
        8 callgsubr
        return
      </CharString>
      <CharString index="141">
        -11 callgsubr
        endchar
      </CharString>
      <CharString index="142">
        -12 rmoveto
        8 callgsubr
        -367 43 callgsubr
        return
      </CharString>
      <CharString index="143">
        -25 -17 -15 -27 return
      </CharString>
      <CharString index="144">
        131 -55 75 -88 -87 -55 -75 -131 -134 55 -75 87 return
      </CharString>
      <CharString index="145">
        338 41 231 rmoveto
        719 40 -719 -40 hlineto
        endchar
      </CharString>
      <CharString index="146">
        55 75 133 132 -55 74 return
      </CharString>
      <CharString index="147">
        105 108 -105 109 -25 -27 return
      </CharString>
      <CharString index="148">
        hlineto
        136 -66 50 return
      </CharString>
      <CharString index="149">
        -705 34 callsubr
      </CharString>
      <CharString index="150">
        -683 rlineto
        return
      </CharString>
      <CharString index="151">
        hlineto
        63 64 -25 26 -105 -109 105 -107 rlineto
        return
      </CharString>
      <CharString index="152">
        -24 -18 -26 -12 -39 -8 rrcurveto
        -30 83 -322 return
      </CharString>
      <CharString index="153">
        rlineto
        -54 hlineto
        return
      </CharString>
      <CharString index="154">
        -237 120 97 rmoveto
        36 callgsubr
        return
      </CharString>
      <CharString index="155">
        281 243 46 -243 241 return
      </CharString>
      <CharString index="156">
        hlineto
        146 90 63 131 137 return
      </CharString>
      <CharString index="157">
        -17 -35 callgsubr
        17 return
      </CharString>
      <CharString index="158">
        -31 -25 21 38 37 25 22 31 return
      </CharString>
      <CharString index="159">
        rmoveto
        88 36 -88 -36 hlineto
        endchar
      </CharString>
      <CharString index="160">
        -53 15 callsubr
        return
      </CharString>
</ttFont>
